<svg width="40" height="41" viewBox="0 0 40 41" fill="none" xmlns="http://www.w3.org/2000/svg">
<rect y="0.5" width="40" height="40" rx="4.28571" fill="#4682B4"/>
<path d="M23.8097 16.6904C25.3252 16.6904 26.7787 17.2924 27.8503 18.364C28.922 19.4357 29.524 20.8891 29.524 22.4046V29.0713H25.7145V22.4046C25.7145 21.8995 25.5138 21.415 25.1566 21.0578C24.7994 20.7006 24.3149 20.4999 23.8097 20.4999C23.3045 20.4999 22.8201 20.7006 22.4628 21.0578C22.1056 21.415 21.905 21.8995 21.905 22.4046V29.0713H18.0954V22.4046C18.0954 20.8891 18.6975 19.4357 19.7691 18.364C20.8407 17.2924 22.2942 16.6904 23.8097 16.6904Z" fill="white"/>
<path d="M14.2859 17.6427H10.4764V29.0713H14.2859V17.6427Z" fill="white"/>
<path d="M12.3811 14.7856C13.4331 14.7856 14.2859 13.9328 14.2859 12.8808C14.2859 11.8289 13.4331 10.9761 12.3811 10.9761C11.3292 10.9761 10.4764 11.8289 10.4764 12.8808C10.4764 13.9328 11.3292 14.7856 12.3811 14.7856Z" fill="white"/>
</svg>
