<svg width="20" height="20" viewBox="0 0 20 20" fill="none" xmlns="http://www.w3.org/2000/svg">
<path d="M13.8097 6.69036C15.3252 6.69036 16.7787 7.2924 17.8503 8.36404C18.922 9.43567 19.524 10.8891 19.524 12.4046V19.0713H15.7145V12.4046C15.7145 11.8995 15.5138 11.415 15.1566 11.0578C14.7994 10.7006 14.3149 10.4999 13.8097 10.4999C13.3045 10.4999 12.8201 10.7006 12.4628 11.0578C12.1056 11.415 11.905 11.8995 11.905 12.4046V19.0713H8.09543V12.4046C8.09543 10.8891 8.69747 9.43567 9.7691 8.36404C10.8407 7.2924 12.2942 6.69036 13.8097 6.69036Z" fill="#A52A2A"/>
<path d="M4.2859 7.64274H0.476379V19.0713H4.2859V7.64274Z" fill="#A52A2A"/>
<path d="M2.38114 4.7856C3.43311 4.7856 4.2859 3.93281 4.2859 2.88084C4.2859 1.82887 3.43311 0.976074 2.38114 0.976074C1.32917 0.976074 0.476379 1.82887 0.476379 2.88084C0.476379 3.93281 1.32917 4.7856 2.38114 4.7856Z" fill="#A52A2A"/>
</svg>
