<svg width="1301" height="298" viewBox="0 0 1301 298" fill="none" xmlns="http://www.w3.org/2000/svg">
<g clip-path="url(#clip0_173_1484)">
<g clip-path="url(#clip1_173_1484)">
<path d="M772.53 173H795.1V254.392C795.1 263.314 792.99 271.161 788.77 277.933C784.6 284.706 778.72 289.998 771.13 293.81C763.55 297.581 754.69 299.467 744.55 299.467C734.37 299.467 725.49 297.581 717.91 293.81C710.32 289.998 704.44 284.706 700.266 277.933C696.089 271.161 694 263.314 694 254.392V173H716.57V252.506C716.57 257.697 717.7 262.32 719.97 266.375C722.29 270.431 725.53 273.614 729.71 275.926C733.88 278.197 738.83 279.332 744.55 279.332C750.27 279.332 755.22 278.197 759.39 275.926C763.61 273.614 766.85 270.431 769.13 266.375C771.4 262.32 772.53 257.697 772.53 252.506V173Z" fill="url(#paint0_linear_173_1484)"/>
<path d="M872.22 297.581H830V173H873.07C885.44 173 896.06 175.494 904.94 180.482C913.87 185.43 920.72 192.547 925.5 201.834C930.29 211.121 932.68 222.233 932.68 235.169C932.68 248.146 930.27 259.299 925.44 268.626C920.66 277.953 913.74 285.111 904.7 290.099C895.7 295.087 884.87 297.581 872.22 297.581ZM852.57 278.055H871.12C879.8 278.055 887.04 276.473 892.84 273.31C898.64 270.106 903 265.341 905.92 259.015C908.84 252.648 910.3 244.699 910.3 235.169C910.3 225.639 908.84 217.731 905.92 211.445C903 205.119 898.68 200.394 892.96 197.272C887.28 194.108 880.23 192.527 871.79 192.527H852.57V278.055Z" fill="url(#paint1_linear_173_1484)"/>
<path d="M956 297.581V173H1037.03V191.919H978.57V225.74H1032.83V244.659H978.57V278.663H1037.52V297.581H956Z" fill="url(#paint2_linear_173_1484)"/>
<path d="M1072 297.581V173H1153.02V191.919H1094.56V225.74H1148.83V244.659H1094.56V278.663H1153.51V297.581H1072Z" fill="url(#paint3_linear_173_1484)"/>
<path d="M1188 297.581V173H1234.72C1244.29 173 1252.32 174.663 1258.81 177.988C1265.34 181.314 1270.26 185.977 1273.59 191.979C1276.95 197.941 1278.64 204.896 1278.64 212.844C1278.64 220.833 1276.93 227.768 1273.53 233.648C1270.16 239.488 1265.19 244.01 1258.62 247.214C1252.05 250.377 1243.98 251.958 1234.41 251.958H1201.14V233.223H1231.37C1236.97 233.223 1241.55 232.452 1245.12 230.911C1248.69 229.329 1251.32 227.038 1253.03 224.037C1254.77 220.996 1255.64 217.265 1255.64 212.844C1255.64 208.424 1254.77 204.652 1253.03 201.53C1251.28 198.367 1248.63 195.974 1245.06 194.352C1241.49 192.689 1236.89 191.858 1231.25 191.858H1210.57V297.581H1188ZM1252.36 241.131L1283.2 297.581H1258.02L1227.72 241.131H1252.36Z" fill="url(#paint4_linear_173_1484)"/>
<mask id="mask0_173_1484" style="mask-type:luminance" maskUnits="userSpaceOnUse" x="209" y="13" width="468" height="285">
<path d="M677 13H209V298H677V13Z" fill="white"/>
</mask>
<g mask="url(#mask0_173_1484)">
<path d="M429.983 14.1124C407.131 58.1842 386.901 97.8562 365.957 137.088C361.189 145.961 360.61 152.818 365.548 161.764C374.709 178.3 382.678 195.606 391.908 214.159C403.18 200.703 409.174 185.816 416.598 172.067C441.732 125.502 466.661 78.7901 491.045 31.7852C495.813 22.5822 501.092 18.6223 510.934 19.2089C526.191 20.1255 541.516 19.7589 556.773 19.9789C568.875 20.15 572.099 25.7842 566.445 36.8816C538.008 92.5395 509.572 148.198 481.101 203.856C467.274 230.878 452.937 257.607 439.824 285.033C434.92 295.299 428.825 298.746 418.506 298.049C399.877 296.766 381.18 296.032 362.483 296.069C353.867 296.069 349.303 292.733 345.626 284.556C337.724 266.81 328.836 249.541 318.687 228.678C308.47 248.697 299.445 265.197 291.544 282.283C287.151 291.779 281.293 294.969 271.519 294.382C254.014 293.319 236.442 293.649 218.868 293.356C210.66 293.209 205.757 292.036 211.478 281.036C255.955 195.496 300.024 109.736 344.059 23.9754C347.362 17.5223 351.142 13.8924 358.464 14.0024C381.044 14.3324 403.623 14.1124 429.983 14.1124Z" fill="url(#paint5_linear_173_1484)"/>
<path d="M676.999 297.927C651.423 297.927 628.81 297.853 606.231 298C601.156 298 597.887 296.204 595.469 291.181C580.961 261.115 566.249 231.196 551.571 201.241C549.357 196.73 548.506 192.257 551.094 187.528C563.592 164.685 575.989 141.806 589.918 116.25C619.411 177.811 647.643 236.696 676.966 297.927H676.999Z" fill="url(#paint6_linear_173_1484)"/>
</g>
<path d="M118 299V173H136.115V279.866H180.158V299H118Z" fill="url(#paint7_linear_173_1484)"/>
<path d="M21.3359 298H2L37.2051 172H59.5684L94.8223 298H75.4863L48.7773 197.84H47.9961L21.3359 298ZM21.9707 248.597H74.7051V266.931H21.9707V248.597Z" fill="url(#paint8_linear_173_1484)"/>
</g>
</g>
<defs>
<linearGradient id="paint0_linear_173_1484" x1="744.55" y1="173" x2="744.55" y2="299.467" gradientUnits="userSpaceOnUse">
<stop offset="0.605" stop-color="white"/>
<stop offset="1" stop-color="white" stop-opacity="0.6"/>
</linearGradient>
<linearGradient id="paint1_linear_173_1484" x1="881.34" y1="173" x2="881.34" y2="297.581" gradientUnits="userSpaceOnUse">
<stop offset="0.605" stop-color="white"/>
<stop offset="1" stop-color="white" stop-opacity="0.6"/>
</linearGradient>
<linearGradient id="paint2_linear_173_1484" x1="996.76" y1="173" x2="996.76" y2="297.581" gradientUnits="userSpaceOnUse">
<stop offset="0.605" stop-color="white"/>
<stop offset="1" stop-color="white" stop-opacity="0.6"/>
</linearGradient>
<linearGradient id="paint3_linear_173_1484" x1="1112.75" y1="173" x2="1112.75" y2="297.581" gradientUnits="userSpaceOnUse">
<stop offset="0.605" stop-color="white"/>
<stop offset="1" stop-color="white" stop-opacity="0.6"/>
</linearGradient>
<linearGradient id="paint4_linear_173_1484" x1="1235.6" y1="173" x2="1235.6" y2="297.581" gradientUnits="userSpaceOnUse">
<stop offset="0.605" stop-color="white"/>
<stop offset="1" stop-color="white" stop-opacity="0.6"/>
</linearGradient>
<linearGradient id="paint5_linear_173_1484" x1="389.073" y1="14" x2="389.073" y2="298.136" gradientUnits="userSpaceOnUse">
<stop offset="0.51" stop-color="white"/>
<stop offset="1" stop-color="white" stop-opacity="0.6"/>
</linearGradient>
<linearGradient id="paint6_linear_173_1484" x1="613.249" y1="116.25" x2="613.249" y2="298" gradientUnits="userSpaceOnUse">
<stop offset="0.51" stop-color="white"/>
<stop offset="1" stop-color="white" stop-opacity="0.6"/>
</linearGradient>
<linearGradient id="paint7_linear_173_1484" x1="149.079" y1="173" x2="149.079" y2="299" gradientUnits="userSpaceOnUse">
<stop stop-color="white"/>
<stop offset="1" stop-color="white" stop-opacity="0.6"/>
</linearGradient>
<linearGradient id="paint8_linear_173_1484" x1="48.4111" y1="172" x2="48.4111" y2="298" gradientUnits="userSpaceOnUse">
<stop stop-color="white"/>
<stop offset="1" stop-color="white" stop-opacity="0.6"/>
</linearGradient>
<clipPath id="clip0_173_1484">
<rect width="1301" height="298" fill="white"/>
</clipPath>
<clipPath id="clip1_173_1484">
<rect width="1540" height="400" fill="white" transform="translate(0 -102)"/>
</clipPath>
</defs>
</svg>
