<svg width="1540" height="400" viewBox="0 0 1540 400" fill="none" xmlns="http://www.w3.org/2000/svg">
<path d="M1068.53 254.533H1091.1V335.925C1091.1 344.847 1088.99 352.694 1084.77 359.466C1080.6 366.239 1074.72 371.531 1067.13 375.343C1059.55 379.114 1050.69 381 1040.55 381C1030.37 381 1021.49 379.114 1013.91 375.343C1006.32 371.531 1000.44 366.239 996.266 359.466C992.089 352.694 990 344.847 990 335.925V254.533H1012.57V334.039C1012.57 339.23 1013.7 343.853 1015.97 347.908C1018.29 351.964 1021.53 355.147 1025.71 357.459C1029.88 359.73 1034.83 360.865 1040.55 360.865C1046.27 360.865 1051.22 359.73 1055.39 357.459C1059.61 355.147 1062.85 351.964 1065.13 347.908C1067.4 343.853 1068.53 339.23 1068.53 334.039V254.533Z" fill="url(#paint0_linear_28_855)"/>
<path d="M1155.32 379.114H1113.1V254.533H1156.17C1168.54 254.533 1179.16 257.027 1188.04 262.015C1196.97 266.963 1203.82 274.08 1208.6 283.367C1213.39 292.654 1215.78 303.766 1215.78 316.702C1215.78 329.679 1213.37 340.832 1208.54 350.159C1203.76 359.486 1196.84 366.644 1187.8 371.632C1178.8 376.62 1167.97 379.114 1155.32 379.114ZM1135.67 359.588H1154.22C1162.9 359.588 1170.14 358.006 1175.94 354.843C1181.74 351.639 1186.1 346.874 1189.02 340.548C1191.94 334.181 1193.4 326.232 1193.4 316.702C1193.4 307.172 1191.94 299.264 1189.02 292.978C1186.1 286.652 1181.78 281.927 1176.06 278.805C1170.38 275.641 1163.33 274.06 1154.89 274.06H1135.67V359.588Z" fill="url(#paint1_linear_28_855)"/>
<path d="M1237.78 379.114V254.533H1318.81V273.452H1260.35V307.273H1314.61V326.192H1260.35V360.196H1319.3V379.114H1237.78Z" fill="url(#paint2_linear_28_855)"/>
<path d="M1341.3 379.114V254.533H1422.32V273.452H1363.86V307.273H1418.13V326.192H1363.86V360.196H1422.81V379.114H1341.3Z" fill="url(#paint3_linear_28_855)"/>
<path d="M1444.81 379.114V254.533H1491.53C1501.1 254.533 1509.13 256.196 1515.62 259.521C1522.15 262.847 1527.07 267.51 1530.4 273.512C1533.76 279.474 1535.45 286.429 1535.45 294.377C1535.45 302.366 1533.74 309.301 1530.34 315.181C1526.97 321.021 1522 325.543 1515.43 328.747C1508.86 331.91 1500.79 333.491 1491.22 333.491H1457.95V314.756H1488.18C1493.78 314.756 1498.36 313.985 1501.93 312.444C1505.5 310.862 1508.13 308.571 1509.84 305.57C1511.58 302.529 1512.45 298.798 1512.45 294.377C1512.45 289.957 1511.58 286.185 1509.84 283.063C1508.09 279.9 1505.44 277.507 1501.87 275.885C1498.3 274.222 1493.7 273.391 1488.06 273.391H1467.38V379.114H1444.81ZM1509.17 322.664L1540.01 379.114H1514.83L1484.53 322.664H1509.17Z" fill="url(#paint4_linear_28_855)"/>
<g clip-path="url(#clip0_28_855)">
<path d="M536.872 0.15486C502.342 62.01 471.775 117.69 440.127 172.752C432.923 185.206 432.048 194.829 439.51 207.385C453.352 230.594 465.394 254.883 479.34 280.922C496.373 262.036 505.43 241.143 516.648 221.845C554.625 156.491 592.294 90.9306 629.139 24.9587C636.343 12.0422 644.32 6.48446 659.192 7.30783C682.246 8.59433 705.402 8.07973 728.456 8.38849C746.742 8.62864 751.613 16.5363 743.071 32.1116C700.102 110.228 657.133 188.345 614.113 266.461C593.22 304.387 571.556 341.902 551.743 380.394C544.333 394.803 535.122 399.64 519.53 398.663C491.381 396.861 463.13 395.832 434.878 395.884C421.859 395.884 414.963 391.201 409.406 379.725C397.467 354.818 384.036 330.581 368.701 301.3C353.263 329.397 339.626 352.554 327.688 376.535C321.049 389.863 312.198 394.34 297.429 393.516C270.979 392.024 244.426 392.487 217.872 392.076C205.47 391.87 198.06 390.223 206.706 374.785C273.912 254.728 340.501 134.363 407.039 13.9976C412.03 4.94066 417.742 -0.153901 428.806 0.000479868C462.924 0.463621 497.042 0.15486 536.872 0.15486Z" fill="url(#paint5_linear_28_855)"/>
<path d="M910.16 399.897C871.514 399.897 837.345 399.794 803.227 400C795.559 400 790.619 397.479 786.966 390.429C765.044 348.231 742.813 306.24 720.634 264.197C717.289 257.867 716.003 251.589 719.914 244.951C738.799 212.891 757.531 180.78 778.578 144.912C823.142 231.314 865.802 313.959 910.109 399.897H910.16Z" fill="url(#paint6_linear_28_855)"/>
</g>
<path d="M105.994 381V281H124.109V365.814H168.152V381H105.994Z" fill="url(#paint7_linear_28_855)"/>
<path d="M19.3359 381H0L35.2051 281H57.5684L92.8223 381H73.4863L46.7773 301.508H45.9961L19.3359 381ZM19.9707 341.791H72.7051V356.342H19.9707V341.791Z" fill="url(#paint8_linear_28_855)"/>
<defs>
<linearGradient id="paint0_linear_28_855" x1="1040.55" y1="254.533" x2="1040.55" y2="381" gradientUnits="userSpaceOnUse">
<stop offset="0.605" stop-color="white"/>
<stop offset="1" stop-color="white" stop-opacity="0.6"/>
</linearGradient>
<linearGradient id="paint1_linear_28_855" x1="1164.44" y1="254.533" x2="1164.44" y2="379.114" gradientUnits="userSpaceOnUse">
<stop offset="0.605" stop-color="white"/>
<stop offset="1" stop-color="white" stop-opacity="0.6"/>
</linearGradient>
<linearGradient id="paint2_linear_28_855" x1="1278.54" y1="254.533" x2="1278.54" y2="379.114" gradientUnits="userSpaceOnUse">
<stop offset="0.605" stop-color="white"/>
<stop offset="1" stop-color="white" stop-opacity="0.6"/>
</linearGradient>
<linearGradient id="paint3_linear_28_855" x1="1382.05" y1="254.533" x2="1382.05" y2="379.114" gradientUnits="userSpaceOnUse">
<stop offset="0.605" stop-color="white"/>
<stop offset="1" stop-color="white" stop-opacity="0.6"/>
</linearGradient>
<linearGradient id="paint4_linear_28_855" x1="1492.41" y1="254.533" x2="1492.41" y2="379.114" gradientUnits="userSpaceOnUse">
<stop offset="0.605" stop-color="white"/>
<stop offset="1" stop-color="white" stop-opacity="0.6"/>
</linearGradient>
<linearGradient id="paint5_linear_28_855" x1="475.056" y1="-0.00292969" x2="475.056" y2="398.784" gradientUnits="userSpaceOnUse">
<stop offset="0.51" stop-color="white"/>
<stop offset="1" stop-color="white" stop-opacity="0.6"/>
</linearGradient>
<linearGradient id="paint6_linear_28_855" x1="813.831" y1="144.912" x2="813.831" y2="400" gradientUnits="userSpaceOnUse">
<stop offset="0.51" stop-color="white"/>
<stop offset="1" stop-color="white" stop-opacity="0.6"/>
</linearGradient>
<linearGradient id="paint7_linear_28_855" x1="137.073" y1="281" x2="137.073" y2="381" gradientUnits="userSpaceOnUse">
<stop stop-color="white"/>
<stop offset="1" stop-color="white" stop-opacity="0.6"/>
</linearGradient>
<linearGradient id="paint8_linear_28_855" x1="46.4111" y1="281" x2="46.4111" y2="381" gradientUnits="userSpaceOnUse">
<stop stop-color="white"/>
<stop offset="1" stop-color="white" stop-opacity="0.6"/>
</linearGradient>
<clipPath id="clip0_28_855">
<rect width="707.161" height="400" fill="white" transform="translate(203)"/>
</clipPath>
</defs>
</svg>
