<svg width="520" height="399" viewBox="0 0 520 399" fill="none" xmlns="http://www.w3.org/2000/svg">
<g clip-path="url(#clip0_28_906)">
<path d="M245.508 0.920576C220.117 46.35 197.64 87.244 174.368 127.685C169.071 136.831 168.427 143.899 173.914 153.12C184.093 170.166 192.948 188.005 203.203 207.129C215.728 193.259 222.388 177.914 230.637 163.741C258.563 115.741 286.262 67.5907 313.355 19.1377C318.653 9.65119 324.518 5.56934 335.454 6.17406C352.406 7.11893 369.435 6.74099 386.387 6.96775C399.833 7.14413 403.415 12.9519 397.134 24.3912C365.537 81.7638 333.94 139.136 302.306 196.509C286.943 224.364 271.012 251.916 256.444 280.187C250.995 290.769 244.221 294.322 232.756 293.604C212.057 292.281 191.283 291.525 170.509 291.563C160.935 291.563 155.864 288.124 151.778 279.695C142.999 261.403 133.122 243.601 121.846 222.096C110.494 242.732 100.466 259.74 91.6874 277.352C86.8061 287.141 80.2975 290.429 69.4374 289.825C49.9875 288.728 30.462 289.069 10.9364 288.766C1.81696 288.615 -3.63203 287.406 2.72512 276.067C52.1444 187.892 101.11 99.4896 150.037 11.0874C153.708 4.4355 157.908 0.693807 166.043 0.807192C191.132 1.14735 216.22 0.920576 245.508 0.920576Z" fill="white"/>
<path d="M520 294.512C491.582 294.512 466.456 294.436 441.368 294.587C435.73 294.587 432.097 292.736 429.41 287.558C413.291 256.566 396.944 225.725 380.634 194.847C378.175 190.198 377.229 185.587 380.105 180.711C393.992 157.165 407.766 133.581 423.243 107.238C456.012 170.696 487.382 231.394 519.962 294.512H520Z" fill="white"/>
</g>
<path d="M65.7215 398.193V336.188H76.9539V388.777H104.263V398.193H65.7215Z" fill="white"/>
<path d="M11.9893 398.193H0L21.8289 336.188H35.6953L57.5545 398.193H45.5653L29.0043 348.903H28.5199L11.9893 398.193ZM12.3828 373.881H45.0808V382.903H12.3828V373.881Z" fill="white"/>
<g clip-path="url(#clip1_28_906)">
<path d="M168.968 336.212C163.608 345.8 158.863 354.431 153.95 362.967C152.831 364.897 152.696 366.389 153.854 368.335C156.003 371.933 157.872 375.698 160.037 379.734C162.681 376.807 164.087 373.568 165.829 370.577C171.724 360.446 177.572 350.283 183.292 340.057C184.41 338.055 185.649 337.193 187.957 337.321C191.536 337.52 195.131 337.44 198.71 337.488C201.549 337.526 202.305 338.751 200.979 341.166C194.308 353.275 187.638 365.384 180.959 377.493C177.716 383.372 174.353 389.187 171.277 395.154C170.127 397.387 168.697 398.137 166.276 397.986C161.906 397.707 157.521 397.547 153.135 397.555C151.114 397.555 150.043 396.829 149.181 395.05C147.327 391.189 145.242 387.432 142.862 382.893C140.465 387.249 138.348 390.838 136.495 394.556C135.464 396.622 134.09 397.316 131.797 397.188C127.691 396.957 123.569 397.028 119.447 396.965C117.522 396.933 116.371 396.677 117.713 394.284C128.147 375.674 138.484 357.016 148.813 338.358C149.588 336.954 150.475 336.164 152.192 336.188C157.489 336.26 162.785 336.212 168.968 336.212Z" fill="white"/>
<path d="M226.917 398.176C220.918 398.176 215.614 398.16 210.317 398.192C209.127 398.192 208.36 397.801 207.793 396.709C204.39 390.167 200.939 383.658 197.495 377.141C196.976 376.16 196.776 375.187 197.384 374.158C200.315 369.188 203.223 364.21 206.491 358.65C213.409 372.044 220.031 384.855 226.91 398.176H226.917Z" fill="white"/>
</g>
<path d="M278.188 336.274H289.222V376.067C289.222 380.429 288.191 384.266 286.129 387.577C284.086 390.888 281.212 393.475 277.504 395.339C273.796 397.183 269.464 398.105 264.507 398.105C259.531 398.105 255.189 397.183 251.481 395.339C247.773 393.475 244.898 390.888 242.856 387.577C240.814 384.266 239.793 380.429 239.793 376.067V336.274H250.827V375.145C250.827 377.683 251.382 379.943 252.492 381.926C253.622 383.909 255.208 385.465 257.251 386.595C259.293 387.706 261.712 388.261 264.507 388.261C267.303 388.261 269.722 387.706 271.764 386.595C273.826 385.465 275.412 383.909 276.522 381.926C277.633 379.943 278.188 377.683 278.188 375.145V336.274Z" fill="white"/>
<path d="M320.861 397.644H300.222V336.735H321.278C327.325 336.735 332.52 337.955 336.862 340.393C341.224 342.812 344.575 346.292 346.914 350.832C349.254 355.373 350.423 360.805 350.423 367.13C350.423 373.475 349.244 378.927 346.884 383.487C344.545 388.048 341.164 391.547 336.743 393.986C332.341 396.424 327.047 397.644 320.861 397.644ZM311.255 388.097H320.326C324.569 388.097 328.108 387.324 330.943 385.777C333.779 384.211 335.91 381.881 337.338 378.788C338.765 375.676 339.479 371.789 339.479 367.13C339.479 362.471 338.765 358.604 337.338 355.531C335.91 352.438 333.799 350.128 331.003 348.602C328.227 347.055 324.777 346.282 320.653 346.282H311.255V388.097Z" fill="white"/>
<path d="M361.423 397.644V336.735H401.038V345.985H372.457V362.52H398.986V371.77H372.457V388.395H401.276V397.644H361.423Z" fill="white"/>
<path d="M412.276 397.644V336.735H451.89V345.985H423.309V362.52H449.838V371.77H423.309V388.395H452.128V397.644H412.276Z" fill="white"/>
<path d="M463.128 397.644V336.735H485.969C490.648 336.735 494.573 337.548 497.746 339.174C500.938 340.8 503.347 343.08 504.973 346.014C506.618 348.929 507.441 352.329 507.441 356.215C507.441 360.121 506.608 363.512 504.943 366.387C503.297 369.242 500.869 371.452 497.657 373.019C494.445 374.565 490.499 375.338 485.82 375.338H469.552V366.178H484.333C487.069 366.178 489.309 365.802 491.054 365.048C492.799 364.275 494.088 363.155 494.92 361.688C495.773 360.201 496.199 358.376 496.199 356.215C496.199 354.054 495.773 352.21 494.92 350.684C494.068 349.137 492.769 347.967 491.024 347.174C489.28 346.361 487.029 345.955 484.273 345.955H474.162V397.644H463.128ZM494.593 370.045L509.672 397.644H497.359L482.548 370.045H494.593Z" fill="white"/>
<defs>
<clipPath id="clip0_28_906">
<rect width="520" height="293.78" fill="white" transform="translate(0 0.807617)"/>
</clipPath>
<clipPath id="clip1_28_906">
<rect width="109.78" height="62.0051" fill="white" transform="translate(117.138 336.188)"/>
</clipPath>
</defs>
</svg>
