<svg width="102" height="58" viewBox="0 0 102 58" fill="none" xmlns="http://www.w3.org/2000/svg">
<g clip-path="url(#clip0_58_166)">
<path d="M48.0518 0.522194C43.0822 9.41383 38.6829 17.4178 34.128 25.333C33.0911 27.1231 32.9652 28.5064 34.0391 30.3114C36.0314 33.6476 37.7645 37.1392 39.7716 40.8822C42.223 38.1674 43.5265 35.1641 45.1411 32.3901C50.6069 22.9954 56.0283 13.5712 61.3311 4.08773C62.368 2.23099 63.516 1.43207 65.6564 1.55043C68.9744 1.73536 72.3072 1.66139 75.6252 1.70577C78.2569 1.74029 78.958 2.87702 77.7286 5.11596C71.5443 16.3452 65.3601 27.5744 59.1685 38.8036C56.1616 44.2554 53.0436 49.6481 50.1922 55.1814C49.1257 57.2526 47.7999 57.948 45.5558 57.8074C41.5046 57.5485 37.4386 57.4006 33.3726 57.408C31.4988 57.408 30.5064 56.7348 29.7065 55.0852C27.9882 51.5049 26.0552 48.0207 23.8482 43.8116C21.6263 47.8506 19.6636 51.1794 17.9454 54.6266C16.99 56.5425 15.7161 57.186 13.5905 57.0677C9.7837 56.8532 5.96208 56.9197 2.14046 56.8606C0.355551 56.831 -0.710948 56.5943 0.5333 54.375C10.2059 37.117 19.7895 19.8145 29.3658 2.51209C30.0842 1.21015 30.9063 0.47781 32.4986 0.500002C37.409 0.566578 42.3193 0.522194 48.0518 0.522194Z" fill="white"/>
<path d="M101.777 57.985C96.2145 57.985 91.2967 57.9702 86.3864 57.9998C85.2829 57.9998 84.5719 57.6373 84.046 56.6239C80.891 50.5581 77.6915 44.5218 74.4994 38.4782C74.018 37.5683 73.8328 36.6658 74.3957 35.7115C77.1138 31.103 79.8097 26.487 82.8388 21.3311C89.2526 33.7512 95.3924 45.6314 101.769 57.985H101.777Z" fill="white"/>
</g>
<defs>
<clipPath id="clip0_58_166">
<rect width="101.777" height="57.4998" fill="white" transform="translate(0 0.5)"/>
</clipPath>
</defs>
</svg>
