<svg width="85" height="48" viewBox="0 0 85 48" fill="none" xmlns="http://www.w3.org/2000/svg">
<g clip-path="url(#clip0_28_871)">
<path d="M40.1232 0.0189348C35.9736 7.44155 32.3002 14.1231 28.4969 20.7306C27.6311 22.225 27.526 23.3798 28.4227 24.8866C30.0862 27.6716 31.5333 30.5863 33.2093 33.7109C35.2562 31.4446 36.3447 28.9375 37.6928 26.6218C42.2568 18.7793 46.7836 10.912 51.2115 2.99539C52.0773 1.44541 53.0359 0.778487 54.8231 0.877291C57.5937 1.03167 60.3766 0.969919 63.1471 1.00697C65.3446 1.03579 65.93 1.98471 64.9034 3.85375C59.7396 13.2277 54.5758 22.6017 49.4057 31.9757C46.8949 36.5268 44.2914 41.0286 41.9105 45.6476C41.0199 47.3767 39.913 47.9572 38.0391 47.8398C34.6564 47.6237 31.2612 47.5002 27.8661 47.5064C26.3015 47.5064 25.4728 46.9444 24.8049 45.5674C23.3702 42.5786 21.7561 39.67 19.9132 36.1563C18.0579 39.528 16.4191 42.3069 14.9843 45.1845C14.1866 46.7839 13.1229 47.3211 11.348 47.2223C8.16933 47.0432 4.97827 47.0988 1.78721 47.0494C0.296813 47.0247 -0.593715 46.8271 0.445235 44.9745C8.52183 30.5678 16.5242 16.1239 24.5204 1.68007C25.1203 0.59323 25.8067 -0.0181165 27.1363 0.000409147C31.2365 0.0559861 35.3366 0.0189348 40.1232 0.0189348Z" fill="#A52A2A"/>
<path d="M84.9841 47.9869C80.3397 47.9869 76.2334 47.9745 72.1333 47.9992C71.2118 47.9992 70.6181 47.6967 70.1791 46.8507C67.5446 41.787 64.873 36.748 62.2076 31.7028C61.8056 30.9433 61.651 30.1899 62.121 29.3933C64.3906 25.5461 66.6417 21.6928 69.171 17.3887C74.5266 27.7569 79.6533 37.6743 84.9779 47.9869H84.9841Z" fill="#A52A2A"/>
</g>
<defs>
<clipPath id="clip0_28_871">
<rect width="84.9836" height="48" fill="white"/>
</clipPath>
</defs>
</svg>
