<svg width="24" height="24" viewBox="0 0 24 24" fill="none" xmlns="http://www.w3.org/2000/svg">
<mask id="path-1-inside-1_46_49" fill="white">
<path d="M16.8 22.5247H7.20001C6.81205 22.5238 6.43111 22.4212 6.09518 22.2271C5.75925 22.033 5.48007 21.7542 5.28549 21.4186L0.485492 13.105C0.292054 12.7689 0.190247 12.3878 0.190247 12C0.190247 11.6121 0.292054 11.2311 0.485492 10.895L5.28549 2.58067C5.47997 2.24494 5.75912 1.9661 6.09507 1.77202C6.43102 1.57793 6.81202 1.47538 7.20001 1.47461H16.8C17.188 1.47519 17.5691 1.57758 17.9052 1.77155C18.2413 1.96552 18.5206 2.24428 18.7152 2.57998L23.5152 10.8943C23.7086 11.2304 23.8105 11.6115 23.8105 11.9993C23.8105 12.3871 23.7086 12.7682 23.5152 13.1043L18.7152 21.4186C18.5206 21.7544 18.2414 22.0333 17.9053 22.2273C17.5692 22.4214 17.1881 22.5239 16.8 22.5247ZM7.20001 3.18752C7.11284 3.1878 7.02726 3.21093 6.95182 3.25461C6.87638 3.29828 6.81371 3.36098 6.77006 3.43644L1.97006 11.75C1.92643 11.8256 1.90346 11.9113 1.90346 11.9986C1.90346 12.0859 1.92643 12.1716 1.97006 12.2472L6.77006 20.5601C6.81371 20.6356 6.87638 20.6982 6.95182 20.7419C7.02726 20.7856 7.11284 20.8087 7.20001 20.809H16.8C16.8875 20.809 16.9734 20.7859 17.0491 20.7421C17.1249 20.6982 17.1877 20.6352 17.2313 20.5594L22.0313 12.2465C22.075 12.1709 22.0979 12.0852 22.0979 11.9979C22.0979 11.9107 22.075 11.8249 22.0313 11.7494L17.2313 3.43644C17.1877 3.36079 17.125 3.29795 17.0494 3.25425C16.9738 3.21056 16.888 3.18754 16.8007 3.18752H7.20001Z"/>
</mask>
<path d="M16.8 22.5247H7.20001C6.81205 22.5238 6.43111 22.4212 6.09518 22.2271C5.75925 22.033 5.48007 21.7542 5.28549 21.4186L0.485492 13.105C0.292054 12.7689 0.190247 12.3878 0.190247 12C0.190247 11.6121 0.292054 11.2311 0.485492 10.895L5.28549 2.58067C5.47997 2.24494 5.75912 1.9661 6.09507 1.77202C6.43102 1.57793 6.81202 1.47538 7.20001 1.47461H16.8C17.188 1.47519 17.5691 1.57758 17.9052 1.77155C18.2413 1.96552 18.5206 2.24428 18.7152 2.57998L23.5152 10.8943C23.7086 11.2304 23.8105 11.6115 23.8105 11.9993C23.8105 12.3871 23.7086 12.7682 23.5152 13.1043L18.7152 21.4186C18.5206 21.7544 18.2414 22.0333 17.9053 22.2273C17.5692 22.4214 17.1881 22.5239 16.8 22.5247ZM7.20001 3.18752C7.11284 3.1878 7.02726 3.21093 6.95182 3.25461C6.87638 3.29828 6.81371 3.36098 6.77006 3.43644L1.97006 11.75C1.92643 11.8256 1.90346 11.9113 1.90346 11.9986C1.90346 12.0859 1.92643 12.1716 1.97006 12.2472L6.77006 20.5601C6.81371 20.6356 6.87638 20.6982 6.95182 20.7419C7.02726 20.7856 7.11284 20.8087 7.20001 20.809H16.8C16.8875 20.809 16.9734 20.7859 17.0491 20.7421C17.1249 20.6982 17.1877 20.6352 17.2313 20.5594L22.0313 12.2465C22.075 12.1709 22.0979 12.0852 22.0979 11.9979C22.0979 11.9107 22.075 11.8249 22.0313 11.7494L17.2313 3.43644C17.1877 3.36079 17.125 3.29795 17.0494 3.25425C16.9738 3.21056 16.888 3.18754 16.8007 3.18752H7.20001Z" fill="white"/>
<path d="M16.8 22.5247V23.5247L16.8019 23.5247L16.8 22.5247ZM7.20001 22.5247L7.19767 23.5247H7.20001V22.5247ZM5.28549 21.4186L4.41947 21.9186L4.42036 21.9202L5.28549 21.4186ZM0.485492 13.105L-0.381248 13.6038L-0.380527 13.605L0.485492 13.105ZM0.190247 12H-0.809753H0.190247ZM0.485492 10.895L-0.380546 10.395L-0.381247 10.3962L0.485492 10.895ZM5.28549 2.58067L4.42018 2.07943L4.41946 2.08069L5.28549 2.58067ZM7.20001 1.47461V0.474607L7.19802 0.474611L7.20001 1.47461ZM16.8 1.47461L16.8015 0.474609H16.8V1.47461ZM18.7152 2.57998L19.5812 2.08L19.5803 2.07844L18.7152 2.57998ZM23.5152 10.8943L24.3819 10.3955L24.3812 10.3943L23.5152 10.8943ZM23.5152 13.1043L24.3812 13.6043L24.3819 13.6031L23.5152 13.1043ZM18.7152 21.4186L19.5804 21.92L19.5812 21.9186L18.7152 21.4186ZM7.20001 3.18752V2.18752L7.19682 2.18753L7.20001 3.18752ZM6.77006 3.43644L5.90443 2.93576L5.90405 2.93643L6.77006 3.43644ZM1.97006 11.75L1.10404 11.25L1.10404 11.25L1.97006 11.75ZM1.90346 11.9986H0.903459H1.90346ZM1.97006 12.2472L1.10404 12.7472L1.10406 12.7472L1.97006 12.2472ZM6.77006 20.5601L5.90406 21.0601L5.90443 21.0608L6.77006 20.5601ZM7.20001 20.809L7.19682 21.809H7.20001V20.809ZM16.8 20.809V21.809H16.8004L16.8 20.809ZM17.2313 20.5594L16.3653 20.0594L16.3645 20.0608L17.2313 20.5594ZM22.0313 12.2465L22.8973 12.7465L22.8973 12.7465L22.0313 12.2465ZM22.0979 11.9979H23.0979H22.0979ZM22.0313 11.7494L22.8973 11.2494L22.8973 11.2493L22.0313 11.7494ZM17.2313 3.43644L16.3649 3.93575L16.3653 3.93648L17.2313 3.43644ZM16.8007 3.18752L16.8009 2.18752H16.8007V3.18752ZM16.8 21.5247H7.20001V23.5247H16.8V21.5247ZM7.20235 21.5247C6.98922 21.5242 6.77996 21.4678 6.59542 21.3612L5.59493 23.093C6.08226 23.3745 6.63487 23.5233 7.19767 23.5247L7.20235 21.5247ZM6.59542 21.3612C6.41088 21.2546 6.25752 21.1014 6.15063 20.9171L4.42036 21.9202C4.70263 22.407 5.10762 22.8114 5.59493 23.093L6.59542 21.3612ZM6.15151 20.9186L1.35151 12.605L-0.380527 13.605L4.41947 21.9186L6.15151 20.9186ZM1.35223 12.6062C1.2461 12.4218 1.19025 12.2128 1.19025 12H-0.809753C-0.809753 12.5629 -0.661994 13.1159 -0.381247 13.6038L1.35223 12.6062ZM1.19025 12C1.19025 11.7872 1.2461 11.5781 1.35223 11.3937L-0.381247 10.3962C-0.661994 10.8841 -0.809753 11.4371 -0.809753 12H1.19025ZM1.35153 11.3949L6.15153 3.08065L4.41946 2.08069L-0.380545 10.395L1.35153 11.3949ZM6.1508 3.0819C6.25758 2.89756 6.41085 2.74447 6.59531 2.6379L5.59483 0.90613C5.10738 1.18774 4.70235 1.59231 4.42018 2.07943L6.1508 3.0819ZM6.59531 2.6379C6.77977 2.53134 6.98896 2.47503 7.20199 2.47461L7.19802 0.474611C6.63508 0.475728 6.08228 0.624521 5.59483 0.90613L6.59531 2.6379ZM7.20001 2.47461H16.8V0.474609H7.20001V2.47461ZM16.7985 2.47461C17.0116 2.47493 17.2208 2.53114 17.4053 2.63765L18.4051 0.905451C17.9175 0.624012 17.3645 0.475452 16.8015 0.474611L16.7985 2.47461ZM17.4053 2.63765C17.5899 2.74415 17.7432 2.8972 17.8501 3.08153L19.5803 2.07844C19.298 1.59135 18.8927 1.18689 18.4051 0.905451L17.4053 2.63765ZM17.8492 3.07996L22.6492 11.3942L24.3812 10.3943L19.5812 2.08L17.8492 3.07996ZM22.6485 11.393C22.7546 11.5775 22.8105 11.7865 22.8105 11.9993H24.8105C24.8105 11.4364 24.6627 10.8834 24.3819 10.3955L22.6485 11.393ZM22.8105 11.9993C22.8105 12.2121 22.7546 12.4211 22.6485 12.6056L24.3819 13.6031C24.6627 13.1152 24.8105 12.5622 24.8105 11.9993H22.8105ZM22.6492 12.6043L17.8492 20.9186L19.5812 21.9186L24.3812 13.6043L22.6492 12.6043ZM17.85 20.9172C17.7431 21.1016 17.5897 21.2548 17.4052 21.3614L18.4054 23.0933C18.893 22.8117 19.2981 22.4072 19.5804 21.92L17.85 20.9172ZM17.4052 21.3614C17.2206 21.468 17.0113 21.5243 16.7982 21.5247L16.8019 23.5247C17.3649 23.5236 17.9178 23.3749 18.4054 23.0933L17.4052 21.3614ZM7.19682 2.18753C6.93479 2.18836 6.67756 2.25789 6.45078 2.38918L7.45286 4.12003C7.37697 4.16397 7.29088 4.18724 7.20319 4.18752L7.19682 2.18753ZM6.45078 2.38918C6.22401 2.52047 6.03563 2.70893 5.90443 2.93576L7.63569 3.93712C7.59179 4.01303 7.52875 4.0761 7.45286 4.12003L6.45078 2.38918ZM5.90405 2.93643L1.10404 11.25L2.83608 12.25L7.63608 3.93645L5.90405 2.93643ZM1.10404 11.25C0.972635 11.4776 0.903459 11.7358 0.903459 11.9986H2.90346C2.90346 12.0869 2.88022 12.1736 2.83609 12.25L1.10404 11.25ZM0.903459 11.9986C0.903459 12.2614 0.972637 12.5196 1.10404 12.7472L2.83609 11.7472C2.88022 11.8236 2.90346 11.9103 2.90346 11.9986H0.903459ZM1.10406 12.7472L5.90406 21.0601L7.63607 20.0601L2.83606 11.7471L1.10406 12.7472ZM5.90443 21.0608C6.03563 21.2876 6.22402 21.4761 6.45078 21.6074L7.45286 19.8765C7.52874 19.9204 7.59179 19.9835 7.63569 20.0594L5.90443 21.0608ZM6.45078 21.6074C6.67755 21.7386 6.93479 21.8082 7.19682 21.809L7.20319 19.809C7.29088 19.8093 7.37697 19.8326 7.45286 19.8765L6.45078 21.6074ZM7.20001 21.809H16.8V19.809H7.20001V21.809ZM16.8004 21.809C17.0636 21.8089 17.3222 21.7394 17.55 21.6076L16.5483 19.8765C16.6247 19.8323 16.7113 19.809 16.7996 19.809L16.8004 21.809ZM17.55 21.6076C17.7778 21.4757 17.9669 21.2862 18.0981 21.058L16.3645 20.0608C16.4085 19.9843 16.4719 19.9207 16.5483 19.8765L17.55 21.6076ZM18.0973 21.0595L22.8973 12.7465L21.1653 11.7465L16.3653 20.0594L18.0973 21.0595ZM22.8973 12.7465C23.0288 12.5189 23.0979 12.2607 23.0979 11.9979H21.0979C21.0979 11.9097 21.1212 11.8229 21.1653 11.7465L22.8973 12.7465ZM23.0979 11.9979C23.0979 11.7351 23.0288 11.477 22.8973 11.2494L21.1653 12.2494C21.1212 12.1729 21.0979 12.0862 21.0979 11.9979H23.0979ZM22.8973 11.2493L18.0973 2.9364L16.3653 3.93648L21.1653 12.2494L22.8973 11.2493ZM18.0977 2.93713C17.9665 2.7093 17.7775 2.52007 17.5498 2.38848L16.5489 4.12003C16.4725 4.07583 16.409 4.01227 16.3649 3.93575L18.0977 2.93713ZM17.5498 2.38848C17.3222 2.25689 17.0639 2.18758 16.8009 2.18752L16.8005 4.18752C16.7122 4.1875 16.6254 4.16423 16.5489 4.12003L17.5498 2.38848ZM16.8007 2.18752H7.20001V4.18752H16.8007V2.18752Z" fill="white" mask="url(#path-1-inside-1_46_49)"/>
<path d="M12 16.3627C11.1372 16.3627 10.2937 16.1069 9.57631 15.6275C8.8589 15.1482 8.29975 14.4668 7.96956 13.6697C7.63937 12.8725 7.55298 11.9954 7.72131 11.1491C7.88964 10.3029 8.30513 9.52556 8.91523 8.91545C9.52534 8.30534 10.3027 7.88985 11.1489 7.72152C11.9952 7.55319 12.8723 7.63959 13.6695 7.96977C14.4666 8.29996 15.1479 8.85912 15.6273 9.57653C16.1067 10.2939 16.3625 11.1374 16.3625 12.0002C16.3612 13.1568 15.9012 14.2657 15.0834 15.0836C14.2655 15.9014 13.1566 16.3615 12 16.3627ZM12 9.35198C11.4762 9.35198 10.9642 9.5073 10.5287 9.79829C10.0932 10.0893 9.75379 10.5029 9.55335 10.9868C9.35292 11.4707 9.30047 12.0031 9.40265 12.5169C9.50484 13.0306 9.75706 13.5024 10.1274 13.8728C10.4978 14.2432 10.9696 14.4954 11.4834 14.5976C11.9971 14.6997 12.5295 14.6473 13.0134 14.4469C13.4973 14.2464 13.9109 13.907 14.2019 13.4715C14.4929 13.036 14.6482 12.524 14.6482 12.0002C14.6475 11.2981 14.3683 10.6249 13.8718 10.1284C13.3753 9.63195 12.7021 9.35271 12 9.35198Z" fill="white"/>
</svg>
