<svg width="103" height="58" viewBox="0 0 103 58" fill="none" xmlns="http://www.w3.org/2000/svg">
<g clip-path="url(#clip0_107_85)">
<path d="M48.7183 0.522194C43.7487 9.41383 39.3494 17.4178 34.7946 25.333C33.7577 27.1231 33.6318 28.5064 34.7057 30.3114C36.698 33.6476 38.431 37.1392 40.4381 40.8822C42.8896 38.1674 44.1931 35.1641 45.8077 32.3901C51.2735 22.9954 56.6948 13.5712 61.9977 4.08773C63.0346 2.23099 64.1826 1.43207 66.323 1.55043C69.641 1.73536 72.9738 1.66139 76.2918 1.70577C78.9234 1.74029 79.6246 2.87702 78.3951 5.11596C72.2109 16.3452 66.0267 27.5744 59.8351 38.8036C56.8282 44.2554 53.7101 49.6481 50.8587 55.1814C49.7922 57.2526 48.4665 57.948 46.2224 57.8074C42.1712 57.5485 38.1052 57.4006 34.0391 57.408C32.1654 57.408 31.1729 56.7348 30.3731 55.0852C28.6548 51.5049 26.7218 48.0207 24.5147 43.8116C22.2928 47.8506 20.3302 51.1794 18.6119 54.6266C17.6565 56.5425 16.3827 57.186 14.2571 57.0677C10.4503 56.8532 6.62864 56.9197 2.80702 56.8606C1.02212 56.831 -0.0443833 56.5943 1.19987 54.375C10.8724 37.117 20.4561 19.8145 30.0324 2.51209C30.7508 1.21015 31.5729 0.47781 33.1652 0.500002C38.0756 0.566578 42.9859 0.522194 48.7183 0.522194Z" fill="white"/>
<path d="M102.443 57.985C96.8811 57.985 91.9634 57.9702 87.053 57.9998C85.9495 57.9998 85.2385 57.6373 84.7127 56.6239C81.5576 50.5581 78.3581 44.5218 75.166 38.4782C74.6846 37.5683 74.4994 36.6658 75.0623 35.7115C77.7804 31.103 80.4763 26.487 83.5054 21.3311C89.9192 33.7512 96.059 45.6314 102.436 57.985H102.443Z" fill="white"/>
</g>
<defs>
<clipPath id="clip0_107_85">
<rect width="101.777" height="57.4998" fill="white" transform="translate(0.666626 0.5)"/>
</clipPath>
</defs>
</svg>
