<svg width="24" height="24" viewBox="0 0 24 24" fill="none" xmlns="http://www.w3.org/2000/svg">
<path fill-rule="evenodd" clip-rule="evenodd" d="M12 4.25C7.71979 4.25 4.25 7.71979 4.25 12C4.25 16.2802 7.71979 19.75 12 19.75C16.2802 19.75 19.75 16.2802 19.75 12C19.75 7.71979 16.2802 4.25 12 4.25ZM3.25 12C3.25 7.16751 7.16751 3.25 12 3.25C16.8325 3.25 20.75 7.16751 20.75 12C20.75 16.8325 16.8325 20.75 12 20.75C7.16751 20.75 3.25 16.8325 3.25 12Z" fill="white"/>
<path fill-rule="evenodd" clip-rule="evenodd" d="M11.5 3.75C11.5 3.47386 11.7239 3.25 12 3.25C16.8971 3.25 20 7.22902 20 12C20 16.771 16.8971 20.75 12 20.75C11.7239 20.75 11.5 20.5261 11.5 20.25C11.5 19.9739 11.7239 19.75 12 19.75C16.2229 19.75 19 16.349 19 12C19 7.65098 16.2229 4.25 12 4.25C11.7239 4.25 11.5 4.02614 11.5 3.75Z" fill="white"/>
<path fill-rule="evenodd" clip-rule="evenodd" d="M10.375 10.875C10.375 10.5989 10.5989 10.375 10.875 10.375H12C12.2761 10.375 12.5 10.5989 12.5 10.875V15C12.5 15.2761 12.2761 15.5 12 15.5C11.7239 15.5 11.5 15.2761 11.5 15V11.375H10.875C10.5989 11.375 10.375 11.1511 10.375 10.875Z" fill="white"/>
<path fill-rule="evenodd" clip-rule="evenodd" d="M10 15.375C10 15.0989 10.2239 14.875 10.5 14.875H13.5C13.7761 14.875 14 15.0989 14 15.375C14 15.6511 13.7761 15.875 13.5 15.875H10.5C10.2239 15.875 10 15.6511 10 15.375Z" fill="white"/>
<path d="M12.25 9C12.25 9.13807 12.1381 9.25 12 9.25C11.8619 9.25 11.75 9.13807 11.75 9C11.75 8.86193 11.8619 8.75 12 8.75C12.1381 8.75 12.25 8.86193 12.25 9Z" fill="white" stroke="white"/>
</svg>
