<svg width="61" height="60" viewBox="0 0 61 60" fill="none" xmlns="http://www.w3.org/2000/svg">
<g clip-path="url(#clip0_28_1040)">
<path d="M52.7371 22.1062C53.0671 23.5912 53.2584 25.1175 53.2584 26.685C53.2584 38.79 42.9834 48.8812 29.4534 51.0487C32.3146 52.2038 35.5209 52.8787 38.9371 52.8787C42.1584 52.8787 45.1996 52.2863 47.9446 51.255C51.4209 52.44 55.2159 52.7475 58.3546 52.7475C56.9373 51.0478 55.7368 49.1785 54.7809 47.1825C58.2609 44.0775 60.4059 39.9638 60.4059 35.4338C60.4059 30.0788 57.4171 25.305 52.7371 22.1062ZM47.6334 26.685C47.6334 16.0913 37.0621 7.5 24.0196 7.5C10.9771 7.5 0.405884 16.0913 0.405884 26.685C0.405884 32.2125 3.29713 37.1775 7.90213 40.68C6.74728 43.6379 5.11986 46.3887 3.08338 48.825C7.80088 48.825 13.8759 48.2062 18.5521 45.3337C20.3109 45.675 22.1371 45.8737 24.0196 45.8737C37.0621 45.87 47.6334 37.2825 47.6334 26.685Z" fill="#4682B4"/>
</g>
<defs>
<clipPath id="clip0_28_1040">
<rect width="60" height="60" fill="white" transform="translate(0.405884)"/>
</clipPath>
</defs>
</svg>
