<svg width="24" height="24" viewBox="0 0 24 24" fill="none" xmlns="http://www.w3.org/2000/svg">
<path d="M8.89569 16.068L8.88792 16.0655L8.88007 16.0633C8.84638 16.0539 8.81506 16.0375 8.78812 16.0152L8.78812 16.0152C8.76118 15.9928 8.73922 15.9651 8.72367 15.9338C8.70811 15.9024 8.69931 15.8682 8.69783 15.8332C8.69638 15.7988 8.70205 15.7645 8.71448 15.7323C8.73869 15.6733 8.78458 15.6257 8.84277 15.5994C8.90146 15.5728 8.96812 15.57 9.02887 15.5914L9.03667 15.5941L9.04455 15.5966C10.9608 16.2012 13.0167 16.2012 14.9329 15.5966L14.9408 15.5941L14.9486 15.5914C15.0094 15.57 15.076 15.5728 15.1347 15.5994C15.1934 15.6259 15.2396 15.6741 15.2636 15.7338L15.7275 15.5473L15.2635 15.7334C15.2764 15.7657 15.2825 15.8002 15.2813 15.8349C15.2801 15.8696 15.2718 15.9037 15.2567 15.935C15.2417 15.9662 15.2203 15.994 15.1939 16.0166C15.1675 16.0391 15.1367 16.0559 15.1035 16.0659L15.1034 16.0659L15.0968 16.068C14.095 16.3847 13.0506 16.5463 11.9999 16.5473C10.9467 16.547 9.89985 16.3854 8.89569 16.068Z" fill="white" stroke="white"/>
<path d="M20.625 20.0174H3.375C2.67881 20.0174 2.01113 19.7409 1.51884 19.2486C1.02656 18.7563 0.75 18.0886 0.75 17.3924V6.60742C0.75 5.91123 1.02656 5.24355 1.51884 4.75127C2.01113 4.25898 2.67881 3.98242 3.375 3.98242H20.625C21.3212 3.98242 21.9889 4.25898 22.4812 4.75127C22.9734 5.24355 23.25 5.91123 23.25 6.60742V17.3924C23.25 18.0886 22.9734 18.7563 22.4812 19.2486C21.9889 19.7409 21.3212 20.0174 20.625 20.0174ZM3.375 5.48242C3.07663 5.48242 2.79048 5.60095 2.5795 5.81193C2.36853 6.02291 2.25 6.30905 2.25 6.60742V17.3924C2.25 17.6908 2.36853 17.9769 2.5795 18.1879C2.79048 18.3989 3.07663 18.5174 3.375 18.5174H20.625C20.9234 18.5174 21.2095 18.3989 21.4205 18.1879C21.6315 17.9769 21.75 17.6908 21.75 17.3924V6.60742C21.75 6.30905 21.6315 6.02291 21.4205 5.81193C21.2095 5.60095 20.9234 5.48242 20.625 5.48242H3.375Z" fill="white"/>
<path d="M12 11.0848C11.4135 11.0854 10.837 10.9329 10.3275 10.6423L1.89 6.14227L2.595 4.82227L11.055 9.32227C11.3382 9.48406 11.6588 9.56916 11.985 9.56916C12.3112 9.56916 12.6318 9.48406 12.915 9.32227L21.39 4.82227L22.095 6.14227L13.635 10.6423C13.1376 10.9292 12.5742 11.0817 12 11.0848Z" fill="white"/>
</svg>
