<svg width="60" height="61" viewBox="0 0 60 61" fill="none" xmlns="http://www.w3.org/2000/svg">
<g clip-path="url(#clip0_28_983)">
<path fill-rule="evenodd" clip-rule="evenodd" d="M55.2033 47.454C55.2913 47.5598 55.3649 47.6786 55.4208 47.8081L59.2091 56.5336C59.5804 57.3386 59.4164 58.2891 58.7956 58.9217C58.1754 59.5538 57.2297 59.7368 56.4176 59.3815L47.5186 55.7536C47.3778 55.696 47.2483 55.6176 47.1342 55.5231L55.2033 47.454ZM14.2715 39.1057L21.7822 45.9724L21.3396 52.0283C21.2065 53.8461 19.9263 55.3734 18.1625 55.8237C17.6249 55.9758 7.48433 58.8303 5.07779 59.081C4.64888 59.1261 4.18136 59.04 3.7376 58.8451L7.44453 55.0568C7.89126 54.6 7.88354 53.8657 7.42611 53.4184C6.96928 52.9716 6.23502 52.9794 5.78829 53.4368L2.06294 57.2441C1.82294 56.76 1.71304 56.2396 1.76235 55.7661C2.01304 53.359 4.86809 43.2196 5.01958 42.6813C5.46987 40.917 6.99839 39.6368 8.81562 39.5037L14.2715 39.1057ZM18.1625 55.8237L18.1845 55.8178L18.1382 55.8297C18.1465 55.8279 18.1548 55.8261 18.1625 55.8237ZM45.096 54.2845C45.0372 54.2412 44.9808 54.1924 44.9273 54.139L32.3267 41.5384C35.2982 39.1556 38.4865 36.338 41.717 33.1954L53.7942 45.2726C53.8471 45.3255 53.8952 45.3819 53.9392 45.4413L45.096 54.2845ZM15.8101 37.3734C18.8225 32.4404 24.1364 25.8944 30.7572 19.2748C39.1631 10.8683 47.4622 4.57481 52.5152 2.38214C54.0342 1.72274 55.3138 1.41977 56.2732 1.43937C57.254 1.45957 57.9996 1.78571 58.5289 2.31501C59.0582 2.84432 59.3849 3.58986 59.4045 4.57066C59.4247 5.53006 59.1218 6.80907 58.4624 8.32868C56.2691 13.3817 49.9756 21.6808 41.5697 30.0867C35.1384 36.518 28.7778 41.7166 23.8994 44.7689L15.8101 37.3734ZM5.01958 42.6813C5.01779 42.6897 5.01542 42.698 5.01364 42.7057L5.02611 42.6594L5.01958 42.6813ZM19.3049 28.5178L1.61859 10.8314C1.04413 10.257 1.04413 9.32491 1.61859 8.75046L8.40512 1.96452C8.97958 1.38947 9.91106 1.38947 10.4861 1.96452L27.6485 19.1269C24.5065 22.3574 21.6889 25.5457 19.3049 28.5178Z" fill="#4682B4"/>
</g>
<defs>
<clipPath id="clip0_28_983">
<rect width="59.4059" height="60" fill="white" transform="translate(0.593994 0.5)"/>
</clipPath>
</defs>
</svg>
