<svg width="150" height="150" viewBox="0 0 150 150" fill="none" xmlns="http://www.w3.org/2000/svg">
<circle cx="75" cy="75" r="75" fill="#303C43" fill-opacity="0.3"/>
<circle cx="75" cy="75.001" r="55" fill="#303C43" fill-opacity="0.5"/>
<path d="M97.3425 77.7868C96.0959 77.3468 94.7025 77.7135 93.9692 78.6668L90.2292 83.8001C90.0092 84.0935 89.6425 84.0935 89.4225 83.8001L85.6825 78.6668C84.9492 77.7135 83.5559 77.3468 82.3092 77.7868C80.8425 78.3001 79.5959 78.8135 78.4959 79.3268C77.9825 79.5468 77.9825 80.2801 78.4959 80.5735C82.9692 83.1401 85.2425 85.9268 86.0492 90.9135C86.1225 91.2801 86.4159 91.5001 86.7092 91.5001H105.996C106.949 91.5001 107.756 90.8401 107.756 90.0335C107.756 82.9201 105.043 80.5735 97.3425 77.7868ZM86.6359 55.1268C78.2759 55.3468 78.4225 64.6601 81.5025 70.3068C81.9425 71.1135 82.6759 71.9935 83.4092 72.5801C83.9959 73.0201 84.7292 73.2401 85.4625 73.2401C85.6092 73.2401 85.7559 73.1668 85.8292 73.0935C86.7825 74.1201 88.1759 75.2201 89.8625 75.2201H89.9359C91.3292 75.2201 92.7225 74.4868 93.9692 73.0935C94.0425 73.1668 94.1892 73.1668 94.3359 73.1668C94.9959 73.1668 95.5825 73.0201 96.1692 72.6535C96.9025 72.1401 97.5625 71.3335 98.0759 70.7468C103.943 63.1935 97.9292 47.7935 86.6359 55.1268ZM96.1692 62.3135C96.3892 64.0001 95.7292 66.9335 94.7759 69.7201C93.4559 72.2868 91.4759 73.9001 90.0092 73.7535C87.1492 73.5335 85.3159 69.9401 85.3159 69.8668C84.4359 67.3001 83.7025 64.7335 83.7025 63.9268C83.7025 63.7801 83.8492 63.6335 83.9959 63.5601C86.4892 62.6801 88.0292 60.4068 88.5425 59.4535C88.6892 59.2335 88.9825 59.1601 89.1292 59.3801C90.7425 61.1401 94.7759 61.8001 95.8759 62.0201C96.0225 61.9468 96.1692 62.0935 96.1692 62.3135ZM73.2892 81.3801C72.1159 80.8668 70.7225 81.3068 69.9892 82.4068L65.9559 88.7868C65.8092 89.0068 65.4425 89.0068 65.3692 88.7135L63.6825 83.1401C63.6092 82.9201 63.6825 82.6268 63.8292 82.4801L65.0759 81.2335C65.3692 81.0135 65.1492 80.5001 64.7825 80.5001H60.3825C60.0159 80.5001 59.7959 80.9401 60.0892 81.2335L61.3359 82.4801C61.4825 82.6268 61.5559 82.9201 61.4825 83.1401L59.7959 88.7135C59.7225 89.0068 59.3559 89.0068 59.2092 88.7868L55.1759 82.4068C54.4425 81.3068 53.1225 80.8668 51.8759 81.3801C44.3959 84.4601 41.7559 87.1735 41.7559 95.0935C41.7559 96.0468 42.4892 96.7801 43.4425 96.7801H81.7225C82.6759 96.7801 83.4092 96.0468 83.4092 95.0935C83.4092 87.1735 80.6959 84.4601 73.2892 81.3801ZM62.5825 78.0801C72.4092 78.0801 77.5425 55.7135 62.5825 55.4935C47.6225 55.7868 52.7559 78.0801 62.5825 78.0801Z" fill="white"/>
</svg>
