<svg width="61" height="60" viewBox="0 0 61 60" fill="none" xmlns="http://www.w3.org/2000/svg">
<path d="M11.6559 51.5625C11.6574 53.0539 12.2505 54.4838 13.3051 55.5383C14.3596 56.5929 15.7895 57.186 17.2809 57.1875H49.1559V55.3125H17.2809C16.2863 55.3125 15.3325 54.9174 14.6292 54.2141C13.926 53.5109 13.5309 52.5571 13.5309 51.5625C13.5309 50.5679 13.926 49.6141 14.6292 48.9109C15.3325 48.2076 16.2863 47.8125 17.2809 47.8125H49.1559V45.9375H17.2809C15.7895 45.939 14.3596 46.5321 13.3051 47.5867C12.2505 48.6412 11.6574 50.0711 11.6559 51.5625Z" fill="#4682B4"/>
<path d="M17.2809 49.6875C16.7836 49.6875 16.3067 49.885 15.9551 50.2367C15.6034 50.5883 15.4059 51.0652 15.4059 51.5625C15.4059 52.0598 15.6034 52.5367 15.9551 52.8883C16.3067 53.24 16.7836 53.4375 17.2809 53.4375H46.724C46.4725 52.8444 46.3429 52.2067 46.3429 51.5625C46.3429 50.9183 46.4725 50.2806 46.724 49.6875H17.2809Z" fill="#4682B4"/>
<path d="M31.5121 10.3125L32.2274 6.73407L30.4059 3.69751L28.5843 6.73407L29.2996 10.3125H31.5121Z" fill="#4682B4"/>
<path d="M31.3434 15.9375H29.4684V18.75H31.3434V15.9375Z" fill="#4682B4"/>
<path d="M27.0187 21.8222C26.9071 21.8966 26.8156 21.9974 26.7524 22.1156C26.6891 22.2339 26.656 22.3659 26.656 22.5C26.656 22.6341 26.6891 22.7661 26.7524 22.8844C26.8156 23.0026 26.9071 23.1034 27.0187 23.1778L28.8121 24.375H31.9996L33.7959 23.1778C33.9074 23.1034 33.9989 23.0026 34.0622 22.8844C34.1255 22.7661 34.1586 22.6341 34.1586 22.5C34.1586 22.3659 34.1255 22.2339 34.0622 22.1156C33.9989 21.9974 33.9074 21.8966 33.7959 21.8222L31.9996 20.625H28.8121L27.0187 21.8222ZM32.2809 44.0625V39.375C32.2811 39.2743 32.2976 39.1742 32.3296 39.0787L32.8359 37.5609C33.0891 36.799 33.2183 36.0013 33.2184 35.1984C33.2213 34.354 33.0874 33.5147 32.8218 32.7131L31.3921 28.4212C31.3601 28.3258 31.3436 28.2257 31.3434 28.125V26.25H29.4684V28.125C29.4681 28.2257 29.4517 28.3258 29.4196 28.4212L27.9759 32.7525C27.7225 33.5141 27.5934 34.3115 27.5934 35.1141C27.5902 35.9585 27.7241 36.7979 27.9899 37.5994L28.4831 39.0787C28.5143 39.1744 28.5305 39.2744 28.5309 39.375V44.0625H32.2809Z" fill="#4682B4"/>
<path d="M51.5934 28.1249L45.5334 16.8749H48.2184C48.7157 16.8749 49.1926 16.6773 49.5442 16.3257C49.8958 15.9741 50.0934 15.4972 50.0934 14.9999V11.8921C50.0938 11.735 50.0366 11.5833 49.9327 11.4656C49.8288 11.3479 49.6854 11.2723 49.5296 11.2531C49.3737 11.2339 49.2163 11.2725 49.0869 11.3616C48.9576 11.4507 48.8654 11.584 48.8278 11.7364L48.2184 14.1974C48.1584 14.9999 47.5256 14.9999 46.2178 14.9999H40.8271C40.0741 15.0014 39.3283 14.8537 38.6326 14.5653C37.937 14.277 37.3054 13.8537 36.7743 13.3199C36.4166 12.9597 35.9909 12.6741 35.5219 12.4797C35.053 12.2853 34.5501 12.186 34.0424 12.1874H26.7693C26.2618 12.186 25.759 12.2853 25.29 12.4795C24.8211 12.6737 24.3954 12.9591 24.0374 13.3189C23.5065 13.853 22.875 14.2766 22.1793 14.5651C21.4837 14.8537 20.7377 15.0014 19.9846 14.9999H14.5987C13.2909 14.9999 12.6581 14.9999 12.5981 14.1974L11.984 11.7364C11.9463 11.584 11.8541 11.4507 11.7248 11.3616C11.5955 11.2725 11.438 11.2339 11.2822 11.2531C11.1263 11.2723 10.9829 11.3479 10.879 11.4656C10.7751 11.5833 10.718 11.735 10.7184 11.8921V14.9999C10.7184 15.4972 10.9159 15.9741 11.2676 16.3257C11.6192 16.6773 12.0961 16.8749 12.5934 16.8749H15.2784L9.21838 28.1249H8.84338C8.84338 30.114 9.63356 32.0217 11.0401 33.4282C12.4466 34.8347 14.3543 35.6249 16.3434 35.6249C18.3325 35.6249 20.2402 34.8347 21.6467 33.4282C23.0532 32.0217 23.8434 30.114 23.8434 28.1249H23.4684L17.4084 16.8749H20.9165C21.4243 16.8763 21.9273 16.7769 22.3964 16.5825C22.8655 16.3881 23.2914 16.1025 23.6493 15.7424C24.181 15.208 24.8133 14.7844 25.5098 14.496C26.2063 14.2076 26.953 14.0603 27.7068 14.0624H33.1049C33.8587 14.0603 34.6055 14.2076 35.302 14.496C35.9984 14.7844 36.6308 15.208 37.1624 15.7424C37.5204 16.1025 37.9463 16.3881 38.4154 16.5825C38.8845 16.7769 39.3875 16.8763 39.8953 16.8749H43.4034L37.3434 28.1249H36.9684C36.9684 30.114 37.7586 32.0217 39.1651 33.4282C40.5716 34.8347 42.4793 35.6249 44.4684 35.6249C46.4575 35.6249 48.3652 34.8347 49.7717 33.4282C51.1782 32.0217 51.9684 30.114 51.9684 28.1249H51.5934ZM11.3503 28.1249L16.3434 18.8521L21.3365 28.1249H11.3503ZM39.4753 28.1249L44.4684 18.8521L49.4615 28.1249H39.4753Z" fill="#4682B4"/>
</svg>
