<svg width="61" height="61" viewBox="0 0 61 61" fill="none" xmlns="http://www.w3.org/2000/svg">
<path d="M30.594 22.375C26.1067 22.375 22.469 26.0128 22.469 30.5C22.469 34.9872 26.1067 38.625 30.594 38.625C35.0812 38.625 38.719 34.9872 38.719 30.5C38.719 26.0128 35.0812 22.375 30.594 22.375Z" fill="#4682B4"/>
<path fill-rule="evenodd" clip-rule="evenodd" d="M22.1784 19.1557C22.9208 19.8775 22.9375 21.0646 22.2156 21.807C17.5535 26.6022 17.5535 34.3977 22.2156 39.193C22.9375 39.9355 22.9208 41.1225 22.1784 41.8442C21.4359 42.5662 20.2488 42.5495 19.527 41.807C13.4497 35.5565 13.4497 25.4435 19.527 19.1929C20.2488 18.4505 21.4359 18.4338 22.1784 19.1557ZM39.0097 19.1557C39.752 18.4338 40.9392 18.4505 41.661 19.1929C47.7382 25.4435 47.7382 35.5565 41.661 41.807C40.9392 42.5495 39.752 42.5662 39.0097 41.8442C38.2672 41.1225 38.2505 39.9355 38.9725 39.193C43.6345 34.3977 43.6345 26.6022 38.9725 21.807C38.2505 21.0646 38.2672 19.8775 39.0097 19.1557Z" fill="#4682B4"/>
<path fill-rule="evenodd" clip-rule="evenodd" d="M16.8949 14.1753C17.6265 14.9082 17.6255 16.0954 16.8926 16.827C9.32777 24.3788 9.32777 36.6213 16.8926 44.173C17.6255 44.9048 17.6265 46.0918 16.8949 46.8247C16.1633 47.5575 14.9762 47.5585 14.2433 46.827C5.21089 37.8103 5.21089 23.1898 14.2433 14.173C14.9762 13.4414 16.1633 13.4425 16.8949 14.1753ZM44.293 14.1753C45.0247 13.4425 46.2117 13.4414 46.9447 14.173C55.977 23.1898 55.977 37.8103 46.9447 46.827C46.2117 47.5585 45.0247 47.5575 44.293 46.8247C43.5615 46.0918 43.5625 44.9048 44.2952 44.173C51.8602 36.6213 51.8602 24.3788 44.2952 16.827C43.5625 16.0954 43.5615 14.9082 44.293 14.1753Z" fill="#4682B4"/>
</svg>
