<svg width="150" height="150" viewBox="0 0 150 150" fill="none" xmlns="http://www.w3.org/2000/svg">
<circle cx="75" cy="75" r="75" fill="#303C43" fill-opacity="0.3"/>
<circle cx="75" cy="75.001" r="55" fill="#303C43" fill-opacity="0.5"/>
<path d="M91.8361 66.659C87.925 50.5562 77.6889 44.8728 77.2611 44.6284C77.0354 44.508 76.7836 44.4451 76.5278 44.4451C76.272 44.4451 76.0201 44.508 75.7944 44.6284C75.275 44.934 65.0083 50.7395 61.1583 66.7201C57.4611 69.7451 47.5 78.5451 47.5 85.6951C47.5 86.1003 47.661 86.4889 47.9475 86.7754C48.234 87.0619 48.6226 87.2228 49.0278 87.2228H59.7222V91.8062C59.7222 92.2114 59.8832 92.6 60.1697 92.8865C60.4562 93.173 60.8448 93.334 61.25 93.334H91.8056C92.2107 93.334 92.5993 93.173 92.8859 92.8865C93.1724 92.6 93.3333 92.2114 93.3333 91.8062V87.2228H104.028C104.433 87.2228 104.822 87.0619 105.108 86.7754C105.395 86.4889 105.556 86.1003 105.556 85.6951C105.556 78.5145 95.5028 69.684 91.8361 66.659ZM79.5833 84.1673H73.4722C73.067 84.1673 72.6784 84.0063 72.3919 83.7198C72.1054 83.4333 71.9444 83.0447 71.9444 82.6395C71.9444 82.2343 72.1054 81.8457 72.3919 81.5592C72.6784 81.2727 73.067 81.1117 73.4722 81.1117H79.5833C79.9885 81.1117 80.3771 81.2727 80.6636 81.5592C80.9501 81.8457 81.1111 82.2343 81.1111 82.6395C81.1111 83.0447 80.9501 83.4333 80.6636 83.7198C80.3771 84.0063 79.9885 84.1673 79.5833 84.1673ZM76.5278 78.0562C75.0169 78.0562 73.54 77.6082 72.2838 76.7688C71.0276 75.9294 70.0485 74.7364 69.4704 73.3406C68.8922 71.9447 68.7409 70.4088 69.0357 68.927C69.3304 67.4452 70.0579 66.0841 71.1263 65.0158C72.1946 63.9475 73.5557 63.2199 75.0375 62.9252C76.5193 62.6304 78.0552 62.7817 79.4511 63.3599C80.8469 63.938 82.0399 64.9171 82.8793 66.1734C83.7187 67.4296 84.1667 68.9065 84.1667 70.4173C84.1667 72.4433 83.3619 74.3862 81.9293 75.8188C80.4967 77.2514 78.5537 78.0562 76.5278 78.0562ZM88.75 96.3895C88.3448 96.3895 87.9562 96.5505 87.6697 96.837C87.3832 97.1235 87.2222 97.5121 87.2222 97.9173V100.973C87.2222 101.378 87.3832 101.767 87.6697 102.053C87.9562 102.34 88.3448 102.501 88.75 102.501C89.1552 102.501 89.5438 102.34 89.8303 102.053C90.1168 101.767 90.2778 101.378 90.2778 100.973V97.9173C90.2778 97.5121 90.1168 97.1235 89.8303 96.837C89.5438 96.5505 89.1552 96.3895 88.75 96.3895ZM64.3056 96.3895C63.9004 96.3895 63.5118 96.5505 63.2253 96.837C62.9387 97.1235 62.7778 97.5121 62.7778 97.9173V100.973C62.7778 101.378 62.9387 101.767 63.2253 102.053C63.5118 102.34 63.9004 102.501 64.3056 102.501C64.7107 102.501 65.0993 102.34 65.3859 102.053C65.6724 101.767 65.8333 101.378 65.8333 100.973V97.9173C65.8333 97.5121 65.6724 97.1235 65.3859 96.837C65.0993 96.5505 64.7107 96.3895 64.3056 96.3895ZM75.5194 105.159C75.7918 105.417 76.1527 105.561 76.5278 105.561C76.9029 105.561 77.2637 105.417 77.5361 105.159C80.1241 102.725 82.1115 99.7227 83.3417 96.3895H69.7139C70.9441 99.7227 72.9315 102.725 75.5194 105.159Z" fill="white"/>
</svg>
