<svg width="61" height="60" viewBox="0 0 61 60" fill="none" xmlns="http://www.w3.org/2000/svg">
<path d="M49.3487 17.9141H24.7487C23.5487 17.9141 22.5202 18.9426 22.5202 20.1426V21.7712H51.5773V20.1426C51.5773 18.9426 50.5487 17.9141 49.3487 17.9141ZM22.5202 36.0855C22.5202 37.2855 23.5487 38.3141 24.7487 38.3141H49.3487C50.5487 38.3141 51.5773 37.2855 51.5773 36.0855V28.1141H22.5202V36.0855ZM42.063 29.0569C42.5773 29.0569 43.0059 29.1426 43.4345 29.3998C43.863 29.2283 44.2916 29.0569 44.8059 29.0569C46.3487 29.0569 47.6345 30.3426 47.6345 31.8855C47.6345 33.4283 46.3487 34.7141 44.8059 34.7141C44.2916 34.7141 43.863 34.5426 43.4345 34.3712C43.0059 34.6283 42.5773 34.7141 42.063 34.7141C40.5202 34.7141 39.2345 33.4283 39.2345 31.8855C39.2345 30.3426 40.5202 29.0569 42.063 29.0569ZM28.0916 29.4855H33.5773C34.0916 29.4855 34.4345 29.8283 34.4345 30.3426C34.4345 30.8569 34.0916 31.1998 33.5773 31.1998H28.0916C27.5773 31.1998 27.2345 30.8569 27.2345 30.3426C27.2345 29.8283 27.5773 29.4855 28.0916 29.4855ZM28.0916 32.5712H36.5773C37.0916 32.5712 37.4345 32.9141 37.4345 33.4283C37.4345 33.9426 37.0916 34.2855 36.5773 34.2855H28.0916C27.5773 34.2855 27.2345 33.9426 27.2345 33.4283C27.2345 32.9141 27.5773 32.5712 28.0916 32.5712Z" fill="#4682B4"/>
<path d="M20.8059 26.3141V23.3998V20.0569C20.8059 17.9141 22.6059 16.1141 24.7487 16.1141H32.8916V14.9141H14.2916V41.3998H32.8916V39.8569H24.7487C22.6059 39.8569 20.8059 38.0569 20.8059 35.9141V26.3141Z" fill="#4682B4"/>
<path d="M34.6059 42.4287C34.6059 42.9429 34.263 43.2858 33.7487 43.2858H13.4344C12.9202 43.2858 12.5773 42.9429 12.5773 42.4287V14.2287C12.5773 13.7144 12.9202 13.3715 13.4344 13.3715H33.7487C34.263 13.3715 34.6059 13.7144 34.6059 14.2287V16.2858H37.863V12.6858C37.863 10.4572 36.063 8.65723 33.8344 8.65723H11.7202C10.3487 8.65723 9.32016 9.77151 9.32016 11.0572V49.0287C9.32016 50.4001 10.4344 51.4287 11.7202 51.4287H33.9202C36.1487 51.4287 37.9487 49.6287 37.9487 47.4001V39.9429H34.6916V42.4287H34.6059ZM26.7202 47.4001H20.463C19.9487 47.4001 19.6059 47.0572 19.6059 46.5429C19.6059 46.0287 19.9487 45.6858 20.463 45.6858H26.7202C27.2344 45.6858 27.5773 46.0287 27.5773 46.5429C27.5773 47.0572 27.1487 47.4001 26.7202 47.4001Z" fill="#4682B4"/>
<path d="M50.7202 22.6284H23.3773C22.863 22.6284 22.5202 23.057 22.5202 23.4856V26.3998C22.5202 26.8284 22.863 27.257 23.3773 27.257H50.7202C51.1487 27.257 51.5773 26.8284 51.5773 26.3998V23.4856C51.5773 22.9713 51.1487 22.6284 50.7202 22.6284Z" fill="#4682B4"/>
</svg>
