<svg width="24" height="24" viewBox="0 0 24 24" fill="none" xmlns="http://www.w3.org/2000/svg">
<path d="M12.5 7.32198V7.25098H12C11.6044 7.25098 11.2178 7.36828 10.8889 7.58804C10.56 7.8078 10.3036 8.12016 10.1522 8.48561C10.0009 8.85106 9.96126 9.2532 10.0384 9.64116C10.1156 10.0291 10.3061 10.3855 10.5858 10.6652C10.8655 10.9449 11.2219 11.1354 11.6098 11.2125C11.9978 11.2897 12.3999 11.2501 12.7654 11.0987C13.1308 10.9474 13.4432 10.691 13.6629 10.3621L13.2472 10.0843L13.6629 10.3621C13.8827 10.0332 14 9.64654 14 9.25098L14 9.24848C13.9974 8.71978 13.7855 8.21364 13.4107 7.84072C13.1565 7.58781 12.8414 7.41013 12.5 7.32198ZM4.47006 19.2663L4.46069 19.266L4.45131 19.266C4.43782 19.266 4.42463 19.2621 4.41332 19.2548C4.40585 19.2494 4.39973 19.2424 4.39546 19.2343L3.95462 19.4653L4.39546 19.2343C4.39099 19.2257 4.38868 19.2162 4.38874 19.2066L4.38887 19.2066L4.38869 19.1956C4.37001 18.0175 4.68633 16.8583 5.30082 15.853C5.91417 14.8496 6.7994 14.0406 7.8538 13.5199C7.86073 13.517 7.86816 13.5153 7.87571 13.515C7.88402 13.5146 7.89232 13.5159 7.90012 13.5188C7.90792 13.5217 7.91506 13.5261 7.92112 13.5318L8.26337 13.1673L7.92112 13.5318C7.92718 13.5375 7.93205 13.5444 7.93543 13.552C7.93882 13.5596 7.94065 13.5678 7.94082 13.5761C7.941 13.5844 7.93951 13.5927 7.93645 13.6004C7.93338 13.6081 7.92881 13.6152 7.92299 13.6211C7.91717 13.6271 7.91022 13.6318 7.90255 13.635L7.88504 13.6424L7.86814 13.651C6.98125 14.1058 6.21949 14.7711 5.64967 15.5888C5.07984 16.4065 4.71937 17.3516 4.59986 18.341L4.50517 19.1251L5.25437 18.8753C5.58822 18.764 6.01147 18.6372 6.47047 18.513C6.48454 18.5112 6.49889 18.5142 6.5111 18.5217L6.77144 18.0948L6.5111 18.5217C6.52491 18.5301 6.53491 18.5435 6.53902 18.5592C6.54312 18.5748 6.54099 18.5914 6.53309 18.6056C6.52593 18.6183 6.51454 18.6282 6.50095 18.6334C5.96402 18.7747 5.47097 18.9293 5.11083 19.0492C4.92898 19.1098 4.78025 19.1617 4.67593 19.1989C4.62378 19.2176 4.58255 19.2326 4.55363 19.2432L4.51891 19.2562L4.50682 19.2608L4.50625 19.261C4.49462 19.265 4.48236 19.2668 4.47006 19.2663ZM12 11.376C11.5797 11.376 11.1689 11.2513 10.8194 11.0179C10.47 10.7844 10.1976 10.4525 10.0368 10.0642C9.87592 9.67589 9.83384 9.24862 9.91584 8.83641C9.99783 8.4242 10.2002 8.04556 10.4974 7.74838C10.7946 7.45119 11.1732 7.2488 11.5854 7.16681C11.9976 7.08482 12.4249 7.1269 12.8132 7.28773C13.2015 7.44857 13.5334 7.72094 13.7669 8.07039C14.0004 8.41985 14.125 8.83069 14.125 9.25098C14.125 9.81456 13.9011 10.3551 13.5026 10.7536C13.1041 11.1521 12.5636 11.376 12 11.376Z" fill="white" stroke="white"/>
<path d="M8.91 18.7495C8.77892 18.7483 8.65233 18.7017 8.5518 18.6176C8.45128 18.5335 8.38305 18.4171 8.35875 18.2883C8.22375 17.5608 8.05875 16.8145 7.8825 16.0383C6.7875 11.092 5.42625 4.96453 11.6925 0.892032C11.8178 0.810478 11.9704 0.782045 12.1167 0.812989C12.2629 0.843932 12.3909 0.931717 12.4725 1.05703C12.554 1.18235 12.5825 1.33493 12.5515 1.4812C12.5206 1.62748 12.4328 1.75548 12.3075 1.83703C6.69374 5.48203 7.87499 10.7133 8.99999 15.772C9.17624 16.5708 9.345 17.3245 9.48375 18.0708C9.49761 18.1459 9.49591 18.2231 9.47876 18.2976C9.46161 18.372 9.42937 18.4422 9.38403 18.5037C9.33869 18.5652 9.28122 18.6168 9.21516 18.6552C9.14911 18.6936 9.07588 18.718 8.99999 18.727C8.9708 18.7374 8.94066 18.745 8.91 18.7495ZM19.5487 19.7658C19.4811 19.7658 19.4139 19.7544 19.35 19.732C19.3237 19.732 16.68 18.7383 15.0862 18.7383C15.0036 18.7381 14.922 18.7197 14.8473 18.6844C14.7725 18.649 14.7065 18.5977 14.6539 18.534C14.6013 18.4702 14.5633 18.3957 14.5428 18.3156C14.5222 18.2356 14.5196 18.152 14.535 18.0708C14.6737 17.3208 14.8425 16.5708 15.0187 15.772C16.0125 11.2983 17.04 6.67453 13.3537 3.13828C13.2981 3.08788 13.253 3.02684 13.2213 2.95875C13.1896 2.89067 13.1718 2.81692 13.1691 2.74186C13.1663 2.6668 13.1786 2.59195 13.2053 2.52172C13.2319 2.45149 13.2723 2.38731 13.3242 2.33296C13.376 2.27861 13.4382 2.23519 13.5071 2.20527C13.576 2.17535 13.6502 2.15953 13.7253 2.15875C13.8004 2.15796 13.8749 2.17223 13.9444 2.2007C14.0139 2.22917 14.077 2.27128 14.13 2.32453C17.4487 5.50828 17.3775 9.44953 16.695 13.2295C17.7497 13.8252 18.6239 14.6947 19.2253 15.7462C19.8266 16.7977 20.1327 17.9922 20.1112 19.2033C20.1127 19.2942 20.0919 19.384 20.0507 19.465C20.0095 19.5461 19.9492 19.6158 19.875 19.6683C19.7787 19.7333 19.6649 19.7673 19.5487 19.7658ZM15.75 17.6508C16.8283 17.8029 17.8902 18.054 18.9225 18.4008C18.8251 17.5961 18.5535 16.8224 18.1268 16.1333C17.7 15.4443 17.1282 14.8565 16.4512 14.4108C16.3387 14.9545 16.2187 15.4908 16.1025 16.0195C15.9862 16.5483 15.8737 17.122 15.75 17.6508ZM12 19.7658C11.8508 19.7658 11.7077 19.7065 11.6022 19.601C11.4968 19.4955 11.4375 19.3525 11.4375 19.2033V13.7133C11.4375 13.5641 11.4968 13.421 11.6022 13.3155C11.7077 13.21 11.8508 13.1508 12 13.1508C12.1492 13.1508 12.2923 13.21 12.3977 13.3155C12.5032 13.421 12.5625 13.5641 12.5625 13.7133V19.2033C12.5625 19.3525 12.5032 19.4955 12.3977 19.601C12.2923 19.7065 12.1492 19.7658 12 19.7658Z" fill="white"/>
<path d="M15.12 18.5667H8.88C8.73082 18.5667 8.58775 18.5075 8.48226 18.402C8.37677 18.2965 8.3175 18.1534 8.3175 18.0042C8.3175 17.855 8.37677 17.712 8.48226 17.6065C8.58775 17.501 8.73082 17.4417 8.88 17.4417H15.12C15.2692 17.4417 15.4123 17.501 15.5178 17.6065C15.6232 17.712 15.6825 17.855 15.6825 18.0042C15.6825 18.1534 15.6232 18.2965 15.5178 18.402C15.4123 18.5075 15.2692 18.5667 15.12 18.5667ZM15.5363 16.6055H13.74C13.5908 16.6055 13.4477 16.5462 13.3423 16.4407C13.2368 16.3352 13.1775 16.1922 13.1775 16.043C13.1775 15.8938 13.2368 15.7507 13.3423 15.6452C13.4477 15.5397 13.5908 15.4805 13.74 15.4805H15.5363C15.6854 15.4805 15.8285 15.5397 15.934 15.6452C16.0395 15.7507 16.0988 15.8938 16.0988 16.043C16.0988 16.1922 16.0395 16.3352 15.934 16.4407C15.8285 16.5462 15.6854 16.6055 15.5363 16.6055ZM12 16.6055H10.1925C10.0433 16.6055 9.90025 16.5462 9.79476 16.4407C9.68927 16.3352 9.63 16.1922 9.63 16.043C9.63 15.8938 9.68927 15.7507 9.79476 15.6452C9.90025 15.5397 10.0433 15.4805 10.1925 15.4805H12C12.1492 15.4805 12.2923 15.5397 12.3978 15.6452C12.5032 15.7507 12.5625 15.8938 12.5625 16.043C12.5625 16.1922 12.5032 16.3352 12.3978 16.4407C12.2923 16.5462 12.1492 16.6055 12 16.6055ZM12 23.198C11.9024 23.1989 11.8064 23.1729 11.7225 23.123C9.4725 21.848 9.47251 20.0892 9.76126 19.3392C9.81596 19.2 9.92373 19.0882 10.0609 19.0284C10.198 18.9686 10.3533 18.9658 10.4925 19.0205C10.6317 19.0752 10.7435 19.1829 10.8033 19.3201C10.8631 19.4572 10.866 19.6125 10.8113 19.7517C10.7588 19.8905 10.4025 21.0755 12.2775 22.148C12.3846 22.2096 12.4685 22.3049 12.5161 22.419C12.5636 22.5331 12.5723 22.6597 12.5407 22.7792C12.5091 22.8987 12.4391 23.0045 12.3413 23.0802C12.2436 23.1559 12.1236 23.1973 12 23.198Z" fill="white"/>
<path d="M12 23.1976C11.8764 23.1969 11.7564 23.1555 11.6587 23.0798C11.561 23.0041 11.4909 22.8984 11.4593 22.7788C11.4277 22.6593 11.4364 22.5327 11.4839 22.4186C11.5315 22.3045 11.6154 22.2093 11.7225 22.1476C13.5975 21.0714 13.2225 19.8976 13.1888 19.7476C13.1345 19.6069 13.1385 19.4504 13.1997 19.3125C13.2608 19.1747 13.3743 19.0668 13.515 19.0126C13.6557 18.9584 13.8122 18.9623 13.9501 19.0235C14.0879 19.0847 14.1958 19.1981 14.25 19.3389C14.55 20.0889 14.5275 21.8476 12.2888 23.1226C12.2016 23.1746 12.1014 23.2006 12 23.1976Z" fill="white"/>
</svg>
