<svg width="24" height="24" viewBox="0 0 24 24" fill="none" xmlns="http://www.w3.org/2000/svg">
<g clip-path="url(#clip0_46_74)">
<mask id="path-1-inside-1_46_74" fill="white">
<path d="M8.16 23.9998H4.32C4.19269 23.9998 4.0706 23.9493 3.98059 23.8593C3.89057 23.7692 3.84 23.6472 3.84 23.5198V6.23985C3.84 6.16533 3.85735 6.09184 3.89067 6.02518C3.924 5.95853 3.97238 5.90056 4.032 5.85585L11.712 0.0958471C11.7832 0.0425237 11.8678 0.0100233 11.9563 0.00197149C12.0449 -0.00608035 12.134 0.010633 12.2136 0.0502471C12.2936 0.0899857 12.3609 0.151245 12.4079 0.227138C12.455 0.303031 12.4799 0.390547 12.48 0.479847V12.9598C12.48 13.049 12.4552 13.1364 12.4083 13.2122C12.3614 13.288 12.2944 13.3493 12.2147 13.3892C12.1349 13.429 12.0457 13.4459 11.9569 13.4379C11.8681 13.4299 11.7833 13.3973 11.712 13.3438L8.64 11.0398V23.5198C8.64 23.6472 8.58943 23.7692 8.49941 23.8593C8.40939 23.9493 8.2873 23.9998 8.16 23.9998ZM4.8 23.0398H7.68V10.0798C7.68 9.99071 7.70482 9.90332 7.75168 9.8275C7.79855 9.75167 7.8656 9.69039 7.94533 9.65052C8.02506 9.61066 8.11432 9.59378 8.2031 9.60179C8.29188 9.60979 8.37668 9.64236 8.448 9.69585L11.52 11.9998V1.43985L4.8 6.47985V23.0398Z"/>
</mask>
<path d="M8.16 23.9998H4.32C4.19269 23.9998 4.0706 23.9493 3.98059 23.8593C3.89057 23.7692 3.84 23.6472 3.84 23.5198V6.23985C3.84 6.16533 3.85735 6.09184 3.89067 6.02518C3.924 5.95853 3.97238 5.90056 4.032 5.85585L11.712 0.0958471C11.7832 0.0425237 11.8678 0.0100233 11.9563 0.00197149C12.0449 -0.00608035 12.134 0.010633 12.2136 0.0502471C12.2936 0.0899857 12.3609 0.151245 12.4079 0.227138C12.455 0.303031 12.4799 0.390547 12.48 0.479847V12.9598C12.48 13.049 12.4552 13.1364 12.4083 13.2122C12.3614 13.288 12.2944 13.3493 12.2147 13.3892C12.1349 13.429 12.0457 13.4459 11.9569 13.4379C11.8681 13.4299 11.7833 13.3973 11.712 13.3438L8.64 11.0398V23.5198C8.64 23.6472 8.58943 23.7692 8.49941 23.8593C8.40939 23.9493 8.2873 23.9998 8.16 23.9998ZM4.8 23.0398H7.68V10.0798C7.68 9.99071 7.70482 9.90332 7.75168 9.8275C7.79855 9.75167 7.8656 9.69039 7.94533 9.65052C8.02506 9.61066 8.11432 9.59378 8.2031 9.60179C8.29188 9.60979 8.37668 9.64236 8.448 9.69585L11.52 11.9998V1.43985L4.8 6.47985V23.0398Z" fill="white"/>
<path d="M3.84 23.5198H4.84H3.84ZM3.84 6.23985H4.84H3.84ZM4.032 5.85585L4.632 6.65585L4.032 5.85585ZM11.712 0.0958471L11.1124 -0.704472L11.112 -0.704153L11.712 0.0958471ZM12.2136 0.0502471L11.7682 0.945566L11.7686 0.945778L12.2136 0.0502471ZM12.48 0.479847H13.48V0.479316L12.48 0.479847ZM11.712 13.3438L12.312 12.5438L11.712 13.3438ZM8.64 11.0398L9.24 10.2398L7.64 9.03985V11.0398H8.64ZM4.8 23.0398H3.8V24.0398H4.8V23.0398ZM7.68 23.0398V24.0398H8.68V23.0398H7.68ZM8.448 9.69585L7.848 10.4958L8.448 9.69585ZM11.52 11.9998L10.92 12.7998L12.52 13.9998V11.9998H11.52ZM11.52 1.43985H12.52V-0.560153L10.92 0.639847L11.52 1.43985ZM4.8 6.47985L4.2 5.67985L3.8 5.97985V6.47985H4.8ZM8.16 22.9998H4.32V24.9998H8.16V22.9998ZM4.32 22.9998C4.45791 22.9998 4.59017 23.0546 4.68769 23.1522L3.27348 24.5664C3.55103 24.8439 3.92748 24.9998 4.32 24.9998V22.9998ZM4.68769 23.1522C4.78521 23.2497 4.84 23.3819 4.84 23.5198H2.84C2.84 23.9124 2.99592 24.2888 3.27348 24.5664L4.68769 23.1522ZM4.84 23.5198V6.23985H2.84V23.5198H4.84ZM4.84 6.23985C4.84 6.32057 4.8212 6.40019 4.7851 6.4724L2.99624 5.57797C2.89349 5.78348 2.84 6.01008 2.84 6.23985H4.84ZM4.7851 6.4724C4.749 6.5446 4.69658 6.60741 4.632 6.65585L3.432 5.05585C3.24818 5.19371 3.099 5.37247 2.99624 5.57797L4.7851 6.4724ZM4.632 6.65585L12.312 0.895847L11.112 -0.704153L3.432 5.05585L4.632 6.65585ZM12.3116 0.896166C12.2345 0.953933 12.1428 0.989142 12.0469 0.997865L11.8658 -0.993922C11.5927 -0.969095 11.3319 -0.868886 11.1124 -0.704472L12.3116 0.896166ZM12.0469 0.997865C11.9509 1.00659 11.8544 0.988481 11.7682 0.945566L12.659 -0.845072C12.4135 -0.967215 12.1389 -1.01875 11.8658 -0.993922L12.0469 0.997865ZM11.7686 0.945778C11.682 0.902729 11.6091 0.836366 11.5581 0.754146L13.2578 -0.29987C13.1127 -0.533875 12.9052 -0.722758 12.6586 -0.845284L11.7686 0.945778ZM11.5581 0.754146C11.5071 0.671926 11.48 0.577117 11.48 0.480378L13.48 0.479316C13.4799 0.203977 13.4029 -0.0658655 13.2578 -0.29987L11.5581 0.754146ZM11.48 0.479847V12.9598H13.48V0.479847H11.48ZM11.48 12.9598C11.48 12.8633 11.5069 12.7686 11.5577 12.6865L13.259 13.7379C13.4035 13.5041 13.48 13.2347 13.48 12.9598H11.48ZM11.5577 12.6865C11.6084 12.6043 11.6811 12.5379 11.7674 12.4947L12.6619 14.2836C12.9077 14.1607 13.1145 13.9717 13.259 13.7379L11.5577 12.6865ZM11.7674 12.4947C11.8538 12.4516 11.9505 12.4333 12.0467 12.4419L11.8671 14.4339C12.1408 14.4586 12.416 14.4065 12.6619 14.2836L11.7674 12.4947ZM12.0467 12.4419C12.1429 12.4506 12.2347 12.4859 12.312 12.5438L11.112 14.1438C11.3319 14.3088 11.5933 14.4092 11.8671 14.4339L12.0467 12.4419ZM12.312 12.5438L9.24 10.2398L8.04 11.8398L11.112 14.1438L12.312 12.5438ZM7.64 11.0398V23.5198H9.64V11.0398H7.64ZM7.64 23.5198C7.64 23.3819 7.69478 23.2497 7.7923 23.1522L9.20651 24.5664C9.48407 24.2888 9.64 23.9124 9.64 23.5198H7.64ZM7.7923 23.1522C7.88982 23.0546 8.02209 22.9998 8.16 22.9998V24.9998C8.55251 24.9998 8.92896 24.8439 9.20651 24.5664L7.7923 23.1522ZM4.8 24.0398H7.68V22.0398H4.8V24.0398ZM8.68 23.0398V10.0798H6.68V23.0398H8.68ZM8.68 10.0798C8.68 10.1764 8.65311 10.2711 8.60233 10.3532L6.90103 9.30176C6.75653 9.53557 6.68 9.80499 6.68 10.0798H8.68ZM8.60233 10.3532C8.55156 10.4354 8.47892 10.5018 8.39255 10.5449L7.49812 8.75609C7.25229 8.87901 7.04553 9.06796 6.90103 9.30176L8.60233 10.3532ZM8.39255 10.5449C8.30618 10.5881 8.20948 10.6064 8.1133 10.5977L8.29291 8.60583C8.01916 8.58114 7.74395 8.63318 7.49812 8.75609L8.39255 10.5449ZM8.1133 10.5977C8.01711 10.5891 7.92525 10.5538 7.848 10.4958L9.048 8.89585C8.82812 8.73094 8.56666 8.63051 8.29291 8.60583L8.1133 10.5977ZM7.848 10.4958L10.92 12.7998L12.12 11.1998L9.048 8.89585L7.848 10.4958ZM12.52 11.9998V1.43985H10.52V11.9998H12.52ZM10.92 0.639847L4.2 5.67985L5.4 7.27985L12.12 2.23985L10.92 0.639847ZM3.8 6.47985V23.0398H5.8V6.47985H3.8Z" fill="white" mask="url(#path-1-inside-1_46_74)"/>
<path d="M19.68 23.9998H15.84C15.7127 23.9998 15.5906 23.9492 15.5006 23.8592C15.4106 23.7692 15.36 23.6471 15.36 23.5198V16.0798L11.712 13.3438C11.6524 13.2991 11.604 13.2411 11.5707 13.1744C11.5373 13.1078 11.52 13.0343 11.52 12.9598V6.23977C11.52 6.15062 11.5448 6.06324 11.5917 5.98741C11.6385 5.91159 11.7056 5.85031 11.7853 5.81044C11.8651 5.77058 11.9543 5.7537 12.0431 5.76171C12.1319 5.76971 12.2167 5.80228 12.288 5.85577L19.968 11.6158C20.0276 11.6605 20.076 11.7185 20.1093 11.7851C20.1426 11.8518 20.16 11.9252 20.16 11.9998V23.5198C20.16 23.6471 20.1094 23.7692 20.0194 23.8592C19.9294 23.9492 19.8073 23.9998 19.68 23.9998ZM16.32 23.0398H19.2V12.2398L12.48 7.19977V12.7198L16.128 15.4558C16.1876 15.5005 16.236 15.5585 16.2693 15.6251C16.3026 15.6918 16.32 15.7652 16.32 15.8398V23.0398Z" fill="white"/>
<path d="M15.84 23.9996H8.15999C8.03269 23.9996 7.9106 23.949 7.82058 23.859C7.73056 23.769 7.67999 23.6469 7.67999 23.5196V10.0796C7.67999 9.99047 7.70482 9.90309 7.75168 9.82726C7.79854 9.75143 7.8656 9.69015 7.94533 9.65029C8.02506 9.61042 8.11432 9.59354 8.2031 9.60155C8.29188 9.60955 8.37668 9.64213 8.44799 9.69561L16.128 15.4556C16.1876 15.5003 16.236 15.5583 16.2693 15.6249C16.3026 15.6916 16.32 15.7651 16.32 15.8396V23.5196C16.32 23.6469 16.2694 23.769 16.1794 23.859C16.0894 23.949 15.9673 23.9996 15.84 23.9996ZM8.63999 23.0396H15.36V16.0796L8.63999 11.0396V23.0396Z" fill="white"/>
</g>
<defs>
<clipPath id="clip0_46_74">
<rect width="24" height="24" fill="white"/>
</clipPath>
</defs>
</svg>
