<svg width="61" height="61" viewBox="0 0 61 61" fill="none" xmlns="http://www.w3.org/2000/svg">
<path d="M39.969 32.375H30.594C30.0967 32.375 29.6198 32.1775 29.2682 31.8258C28.9165 31.4742 28.719 30.9973 28.719 30.5V17.375C28.719 16.8777 28.9165 16.4008 29.2682 16.0492C29.6198 15.6975 30.0967 15.5 30.594 15.5C31.0913 15.5 31.5682 15.6975 31.9198 16.0492C32.2715 16.4008 32.469 16.8777 32.469 17.375V28.625H39.969C40.4663 28.625 40.9432 28.8225 41.2948 29.1742C41.6465 29.5258 41.844 30.0027 41.844 30.5C41.844 30.9973 41.6465 31.4742 41.2948 31.8258C40.9432 32.1775 40.4663 32.375 39.969 32.375Z" fill="#4682B4"/>
<path d="M46.5315 46.4375C43.4974 49.4768 39.6569 51.5844 35.4636 52.5112C31.2702 53.438 26.8993 53.1454 22.8669 51.6679C18.8345 50.1904 15.3092 47.5897 12.7073 44.1731C10.1055 40.7565 8.53575 36.6666 8.18358 32.3865C7.83141 28.1064 8.71149 23.815 10.7199 20.019C12.7283 16.223 15.7811 13.0811 19.5177 10.9644C23.2544 8.84762 27.5187 7.84447 31.8072 8.07339C36.0956 8.30231 40.2289 9.75374 43.719 12.2563V9.875C43.719 9.37772 43.9165 8.90081 44.2682 8.54918C44.6198 8.19754 45.0967 8 45.594 8C46.0913 8 46.5682 8.19754 46.9198 8.54918C47.2715 8.90081 47.469 9.37772 47.469 9.875V17.375C47.469 17.8723 47.2715 18.3492 46.9198 18.7008C46.5682 19.0525 46.0913 19.25 45.594 19.25H39.969C39.4717 19.25 38.9948 19.0525 38.6432 18.7008C38.2915 18.3492 38.094 17.8723 38.094 17.375C38.094 16.8777 38.2915 16.4008 38.6432 16.0492C38.9948 15.6975 39.4717 15.5 39.969 15.5H41.844C38.287 12.8321 33.8976 11.5151 29.4595 11.7841C25.0213 12.053 20.8231 13.8905 17.6143 16.9684C14.4055 20.0463 12.3949 24.1643 11.9414 28.5875C11.488 33.0106 12.6211 37.451 15.1386 41.1159C17.6561 44.7809 21.3941 47.432 25.6854 48.5959C29.9767 49.7599 34.5419 49.3609 38.5663 47.4703C42.5906 45.5797 45.8122 42.3205 47.6558 38.2744C49.4995 34.2283 49.8453 29.6587 48.6315 25.3813C48.5434 25.1388 48.5063 24.8808 48.5225 24.6234C48.5387 24.3659 48.6079 24.1146 48.7257 23.8851C48.8434 23.6556 49.0073 23.4529 49.207 23.2896C49.4067 23.1263 49.6379 23.006 49.8862 22.9362C50.1345 22.8663 50.3946 22.8485 50.6501 22.8837C50.9056 22.919 51.1511 23.0066 51.3712 23.141C51.5914 23.2755 51.7814 23.4539 51.9294 23.6652C52.0774 23.8764 52.1803 24.1159 52.2315 24.3687C53.3326 28.2216 53.3848 32.2985 52.3827 36.1783C51.3807 40.0581 49.3607 43.5998 46.5315 46.4375Z" fill="#4682B4"/>
</svg>
