<svg width="61" height="61" viewBox="0 0 61 61" fill="none" xmlns="http://www.w3.org/2000/svg">
<path d="M45.1101 26.6292C44.3364 26.6261 43.5802 26.859 42.9424 27.2969C42.6799 26.5397 42.189 25.8826 41.5372 25.4164C40.8854 24.9501 40.105 24.6976 39.3037 24.6937C38.53 24.6906 37.7738 24.9235 37.1359 25.3614C36.8735 24.6042 36.3825 23.9472 35.7308 23.4809C35.079 23.0146 34.2986 22.7621 33.4972 22.7582C32.815 22.761 32.1462 22.9483 31.5617 23.3001V14.0485C31.5621 13.4734 31.4344 12.9055 31.1878 12.386C30.9413 11.8664 30.582 11.4084 30.1362 11.0451C29.6904 10.6817 29.1693 10.4223 28.6107 10.2857C28.0521 10.149 27.4701 10.1385 26.9069 10.255C26.0174 10.4554 25.2244 10.9569 24.6619 11.6745C24.0994 12.3922 23.8019 13.282 23.8198 14.1937V36.6356L21.1682 33.6066C20.3481 32.6761 19.2021 32.096 17.9667 31.9862C16.7313 31.8763 15.5008 32.2451 14.5295 33.0163L13.8521 33.5582C13.3005 33.9849 12.9262 34.6004 12.8012 35.2864C12.6761 35.9724 12.8091 36.6805 13.1746 37.2743L20.0746 48.4034C21.3995 50.8266 23.3355 52.861 25.6903 54.3041C28.0451 55.7472 30.7366 56.5487 33.4972 56.6292C37.6038 56.6292 41.5422 54.9978 44.446 52.094C47.3498 49.1902 48.9811 45.2519 48.9811 41.1453V30.5001C48.9811 29.4735 48.5733 28.4889 47.8473 27.7629C47.1214 27.037 46.1368 26.6292 45.1101 26.6292ZM47.0456 41.1453C47.0456 44.7385 45.6182 48.1846 43.0774 50.7254C40.5366 53.2663 37.0905 54.6937 33.4972 54.6937C31.0726 54.6125 28.7116 53.898 26.6488 52.6213C24.586 51.3445 22.8933 49.55 21.7392 47.4163L14.8585 36.2292C14.747 36.0435 14.7062 35.8239 14.7435 35.6106C14.7808 35.3973 14.8938 35.2046 15.0617 35.0679L15.7392 34.5259C16.3221 34.0654 17.0593 33.8459 17.7992 33.9125C18.5391 33.9791 19.2253 34.3268 19.7166 34.884L24.0617 39.8485C24.1917 39.9958 24.3634 40.1002 24.554 40.1476C24.7447 40.195 24.9452 40.1832 25.129 40.1139C25.3128 40.0446 25.4712 39.9209 25.5831 39.7595C25.6949 39.598 25.755 39.4062 25.7553 39.2098V14.1937C25.7333 13.7242 25.8731 13.2614 26.1514 12.8826C26.4298 12.5039 26.8297 12.2322 27.2843 12.113C27.6005 12.0469 27.9281 12.061 28.2375 12.154C28.5468 12.2469 28.8279 12.4158 29.0553 12.6453C29.2399 12.8288 29.3857 13.0476 29.4838 13.2887C29.5819 13.5298 29.6303 13.7882 29.6262 14.0485V33.4034C29.6262 33.66 29.7282 33.9062 29.9097 34.0876C30.0912 34.2691 30.3373 34.3711 30.594 34.3711C30.8507 34.3711 31.0968 34.2691 31.2783 34.0876C31.4598 33.9062 31.5617 33.66 31.5617 33.4034V26.6292C31.5617 26.1158 31.7656 25.6235 32.1286 25.2606C32.4916 24.8976 32.9839 24.6937 33.4972 24.6937C34.0105 24.6937 34.5028 24.8976 34.8658 25.2606C35.2288 25.6235 35.4327 26.1158 35.4327 26.6292V33.4034C35.4327 33.66 35.5347 33.9062 35.7161 34.0876C35.8976 34.2691 36.1438 34.3711 36.4004 34.3711C36.6571 34.3711 36.9033 34.2691 37.0847 34.0876C37.2662 33.9062 37.3682 33.66 37.3682 33.4034V28.5646C37.3682 28.0513 37.5721 27.559 37.9351 27.196C38.298 26.8331 38.7903 26.6292 39.3037 26.6292C39.817 26.6292 40.3093 26.8331 40.6723 27.196C41.0352 27.559 41.2392 28.0513 41.2392 28.5646V33.4034C41.2392 33.66 41.3411 33.9062 41.5226 34.0876C41.7041 34.2691 41.9502 34.3711 42.2069 34.3711C42.4636 34.3711 42.7097 34.2691 42.8912 34.0876C43.0727 33.9062 43.1746 33.66 43.1746 33.4034V30.5001C43.1746 29.9868 43.3785 29.4945 43.7415 29.1315C44.1045 28.7686 44.5968 28.5646 45.1101 28.5646C45.6234 28.5646 46.1157 28.7686 46.4787 29.1315C46.8417 29.4945 47.0456 29.9868 47.0456 30.5001V41.1453ZM27.6908 9.2098C27.9474 9.2098 28.1936 9.10784 28.3751 8.92636C28.5565 8.74487 28.6585 8.49872 28.6585 8.24206V5.33884C28.6585 5.08217 28.5565 4.83603 28.3751 4.65454C28.1936 4.47305 27.9474 4.37109 27.6908 4.37109C27.4341 4.37109 27.188 4.47305 27.0065 4.65454C26.825 4.83603 26.723 5.08217 26.723 5.33884V8.24206C26.723 8.49872 26.825 8.74487 27.0065 8.92636C27.188 9.10784 27.4341 9.2098 27.6908 9.2098Z" fill="#4682B4"/>
<path d="M47.0456 41.1453C47.0456 44.7385 45.6182 48.1846 43.0774 50.7254C40.5366 53.2663 37.0905 54.6937 33.4972 54.6937C31.0726 54.6125 28.7116 53.898 26.6488 52.6213C24.586 51.3445 22.8933 49.55 21.7392 47.4163L14.8585 36.2292C14.747 36.0435 14.7062 35.8239 14.7435 35.6106C14.7808 35.3973 14.8938 35.2046 15.0617 35.0679L15.7392 34.5259C16.3221 34.0654 17.0593 33.8459 17.7992 33.9125C18.5391 33.9791 19.2253 34.3268 19.7166 34.884L24.0617 39.8485C24.1917 39.9958 24.3634 40.1002 24.554 40.1476C24.7447 40.195 24.9452 40.1832 25.129 40.1139C25.3128 40.0446 25.4712 39.9209 25.5831 39.7595C25.6949 39.598 25.755 39.4062 25.7553 39.2098V14.1937C25.7333 13.7242 25.8731 13.2614 26.1514 12.8826C26.4298 12.5039 26.8297 12.2322 27.2843 12.113C27.6005 12.0469 27.9281 12.061 28.2375 12.154C28.5468 12.2469 28.8279 12.4158 29.0553 12.6453C29.2399 12.8288 29.3857 13.0476 29.4838 13.2887C29.5819 13.5298 29.6303 13.7882 29.6262 14.0485V33.4034C29.6262 33.66 29.7282 33.9062 29.9097 34.0876C30.0912 34.2691 30.3373 34.3711 30.594 34.3711C30.8507 34.3711 31.0968 34.2691 31.2783 34.0876C31.4598 33.9062 31.5617 33.66 31.5617 33.4034V26.6292C31.5617 26.1158 31.7656 25.6235 32.1286 25.2606C32.4916 24.8976 32.9839 24.6937 33.4972 24.6937C34.0105 24.6937 34.5028 24.8976 34.8658 25.2606C35.2288 25.6235 35.4327 26.1158 35.4327 26.6292V33.4034C35.4327 33.66 35.5347 33.9062 35.7161 34.0876C35.8976 34.2691 36.1438 34.3711 36.4004 34.3711C36.6571 34.3711 36.9033 34.2691 37.0847 34.0876C37.2662 33.9062 37.3682 33.66 37.3682 33.4034V28.5646C37.3682 28.0513 37.5721 27.559 37.9351 27.196C38.298 26.8331 38.7903 26.6292 39.3037 26.6292C39.817 26.6292 40.3093 26.8331 40.6723 27.196C41.0352 27.559 41.2392 28.0513 41.2392 28.5646V33.4034C41.2392 33.66 41.3411 33.9062 41.5226 34.0876C41.7041 34.2691 41.9502 34.3711 42.2069 34.3711C42.4636 34.3711 42.7097 34.2691 42.8912 34.0876C43.0727 33.9062 43.1746 33.66 43.1746 33.4034V30.5001C43.1746 29.9868 43.3785 29.4945 43.7415 29.1315C44.1045 28.7686 44.5968 28.5646 45.1101 28.5646C45.6234 28.5646 46.1157 28.7686 46.4787 29.1315C46.8417 29.4945 47.0456 29.9868 47.0456 30.5001V41.1453Z" fill="#4682B4"/>
<path d="M33.4972 13.0809C33.4972 13.3375 33.5992 13.5837 33.7806 13.7652C33.9621 13.9467 34.2083 14.0486 34.4649 14.0486H37.3682C37.6248 14.0486 37.871 13.9467 38.0525 13.7652C38.234 13.5837 38.3359 13.3375 38.3359 13.0809C38.3359 12.8242 38.234 12.5781 38.0525 12.3966C37.871 12.2151 37.6248 12.1131 37.3682 12.1131H34.4649C34.2083 12.1131 33.9621 12.2151 33.7806 12.3966C33.5992 12.5781 33.4972 12.8242 33.4972 13.0809ZM18.0133 14.0486H20.9166C21.1732 14.0486 21.4194 13.9467 21.6009 13.7652C21.7823 13.5837 21.8843 13.3375 21.8843 13.0809C21.8843 12.8242 21.7823 12.5781 21.6009 12.3966C21.4194 12.2151 21.1732 12.1131 20.9166 12.1131H18.0133C17.7567 12.1131 17.5105 12.2151 17.329 12.3966C17.1476 12.5781 17.0456 12.8242 17.0456 13.0809C17.0456 13.3375 17.1476 13.5837 17.329 13.7652C17.5105 13.9467 17.7567 14.0486 18.0133 14.0486ZM22.1649 9.89702C22.2549 9.98772 22.3619 10.0597 22.4799 10.1088C22.5978 10.158 22.7243 10.1833 22.852 10.1833C22.9798 10.1833 23.1063 10.158 23.2242 10.1088C23.3421 10.0597 23.4492 9.98772 23.5391 9.89702C23.6298 9.80705 23.7018 9.70002 23.751 9.58209C23.8001 9.46416 23.8254 9.33767 23.8254 9.20992C23.8254 9.08217 23.8001 8.95568 23.751 8.83775C23.7018 8.71982 23.6298 8.61279 23.5391 8.52282L21.6037 6.58734C21.5134 6.49711 21.4063 6.42553 21.2884 6.3767C21.1705 6.32787 21.0442 6.30273 20.9166 6.30273C20.6588 6.30273 20.4117 6.40511 20.2295 6.58734C20.0472 6.76957 19.9449 7.01672 19.9449 7.27444C19.9449 7.53215 20.0472 7.7793 20.2295 7.96153L22.1649 9.89702ZM32.5295 10.1777C32.6568 10.1784 32.7831 10.154 32.901 10.1058C33.0189 10.0577 33.1261 9.98671 33.2166 9.89702L35.152 7.96153C35.2423 7.8713 35.3138 7.76418 35.3627 7.64629C35.4115 7.5284 35.4367 7.40204 35.4367 7.27444C35.4367 7.14683 35.4115 7.02047 35.3627 6.90258C35.3138 6.78469 35.2423 6.67757 35.152 6.58734C35.0618 6.49711 34.9547 6.42553 34.8368 6.3767C34.7189 6.32787 34.5926 6.30273 34.4649 6.30273C34.3373 6.30273 34.211 6.32787 34.0931 6.3767C33.9752 6.42553 33.8681 6.49711 33.7779 6.58734L31.8424 8.52282C31.7517 8.61279 31.6797 8.71982 31.6305 8.83775C31.5814 8.95568 31.5561 9.08217 31.5561 9.20992C31.5561 9.33767 31.5814 9.46416 31.6305 9.58209C31.6797 9.70002 31.7517 9.80705 31.8424 9.89702C31.9328 9.98671 32.04 10.0577 32.1579 10.1058C32.2758 10.154 32.4021 10.1784 32.5295 10.1777Z" fill="#4682B4"/>
</svg>
