<svg width="150" height="150" viewBox="0 0 150 150" fill="none" xmlns="http://www.w3.org/2000/svg">
<circle cx="75" cy="75" r="75" fill="#303C43" fill-opacity="0.3"/>
<circle cx="75.001" cy="75" r="55" fill="#303C43" fill-opacity="0.5"/>
<path d="M69.2715 55.5205V62.3955V69.2705V76.1455V83.0205V89.8955V96.7705V103.646V108.229H85.3132V103.646V96.7705V89.8955V83.0205V76.1455V66.9788V60.1038L69.2715 55.5205Z" fill="#EDEDED"/>
<path d="M85.3145 66.9795V76.1462V83.0212V89.8962V96.7712V103.646V108.229H94.4811V71.5628L85.3145 66.9795Z" fill="#EDEDED"/>
<path d="M102.502 100.21C104.4 100.21 105.939 98.1576 105.939 95.6263C105.939 93.095 104.4 91.043 102.502 91.043C100.603 91.043 99.0645 93.095 99.0645 95.6263C99.0645 98.1576 100.603 100.21 102.502 100.21Z" fill="#EDEDED"/>
<path d="M103.648 107.083V101.15C104.722 100.697 105.629 99.9231 106.244 98.9336C106.86 97.9442 107.154 96.7883 107.085 95.625C107.085 92.4659 105.03 89.8958 102.502 89.8958C99.9742 89.8958 97.9186 92.4659 97.9186 95.625C97.8503 96.7883 98.1441 97.9442 98.7597 98.9336C99.3753 99.9231 100.282 100.697 101.356 101.15V107.083H95.627V71.5625C95.6271 71.3496 95.5678 71.1408 95.4559 70.9597C95.344 70.7785 95.1838 70.6322 94.9933 70.537L86.4603 66.271V60.1042C86.4604 59.8551 86.3794 59.6128 86.2295 59.4139C86.0796 59.215 85.869 59.0704 85.6296 59.0019L70.4186 54.6557V41.7708C70.4186 41.4669 70.2979 41.1755 70.083 40.9606C69.8681 40.7457 69.5767 40.625 69.2728 40.625H46.3561C46.0522 40.625 45.7608 40.7457 45.5459 40.9606C45.331 41.1755 45.2103 41.4669 45.2103 41.7708V107.083H40.627V109.375H109.377V107.083H103.648ZM100.21 95.625C100.21 93.7619 101.26 92.1875 102.502 92.1875C103.744 92.1875 104.794 93.7619 104.794 95.625C104.812 96.1679 104.72 96.7088 104.523 97.215C104.326 97.7212 104.028 98.1821 103.648 98.5698V96.7708H101.356V98.5698C100.975 98.1824 100.677 97.7215 100.48 97.2152C100.283 96.709 100.192 96.1679 100.21 95.625ZM47.502 104.792H57.8145V102.5H47.502V97.9167H57.8145V95.625H47.502V91.0417H57.8145V88.75H47.502V84.1667H57.8145V81.875H47.502V77.2917H57.8145V75H47.502V70.4167H57.8145V68.125H47.502V63.5417H57.8145V61.25H47.502V56.6667H57.8145V54.375H47.502V49.7917H57.8145V47.5H47.502V42.9167H68.127V107.083H47.502V104.792ZM70.4186 104.792H78.4395V102.5H70.4186V97.9167H78.4395V95.625H70.4186V91.0417H78.4395V88.75H70.4186V84.1667H78.4395V81.875H70.4186V77.2917H78.4395V75H70.4186V70.4167H78.4395V68.125H70.4186V63.5417H78.4395V61.25H70.4186V57.0402L84.1686 60.9681V107.083H70.4186V104.792ZM86.4603 107.083V104.792H89.8978V102.5H86.4603V97.9167H89.8978V95.625H86.4603V91.0417H89.8978V88.75H86.4603V84.1667H89.8978V81.875H86.4603V77.2917H89.8978V75H86.4603V68.8331L93.3353 72.2706V107.083H86.4603Z" fill="white"/>
</svg>
