<svg width="150" height="150" viewBox="0 0 150 150" fill="none" xmlns="http://www.w3.org/2000/svg">
<circle cx="75" cy="75" r="75" fill="#303C43" fill-opacity="0.3"/>
<circle cx="75.001" cy="75.0002" r="55" fill="#303C43" fill-opacity="0.5"/>
<path d="M68.1637 44.3076C68.5316 43.9397 69.2675 43.4184 69.7887 43.1731C70.494 42.7745 71.6898 42.6825 74.9093 42.6519C78.4354 42.6519 79.3246 42.7438 80.2752 43.2344C80.9191 43.5411 81.8083 44.2156 82.2682 44.7675C82.7588 45.2888 83.2494 46.2393 83.4333 46.8526C83.5866 47.4965 83.74 49.0909 83.74 52.7703L87.8793 54.61L89.4738 53.0769C90.363 52.2491 91.6814 51.2679 92.3867 50.9306C93.1225 50.5933 93.9811 50.3174 94.3184 50.3174C94.6556 50.3174 95.4835 50.4707 96.1581 50.6546C97.0779 50.9306 98.2124 51.8198 100.849 54.4261C102.781 56.2965 104.529 58.1668 104.743 58.5961C104.958 59.0254 105.234 59.7919 105.326 60.2825C105.449 60.7731 105.387 61.8156 105.173 62.5822C104.927 63.6247 104.314 64.4832 102.75 66.1083C100.757 68.1627 100.665 68.2853 101.064 69.0212C101.279 69.4505 101.647 70.3703 102.29 72.394H104.437C105.602 72.394 107.074 72.5473 107.656 72.7006C108.239 72.8846 109.128 73.4059 109.588 73.8658C110.079 74.3257 110.723 75.2149 111.06 75.8282C111.55 76.84 111.642 77.6679 111.642 81.6539C111.642 85.5174 111.52 86.5599 111.06 87.5717C110.784 88.2463 110.079 89.1661 109.557 89.6261C109.005 90.1167 108.055 90.6073 107.411 90.7912C106.798 90.9445 105.203 91.0978 101.524 91.0978L99.9908 94.4707H95.0849L96.2807 92.079C96.9246 90.7912 97.5992 89.1968 97.8138 88.5529C97.9978 87.9397 98.4271 87.2958 98.7643 87.1118C99.1016 86.9278 100.941 86.8052 102.812 86.8052C105.663 86.8052 106.369 86.6825 106.828 86.2533C107.288 85.7933 107.38 85.1801 107.35 81.6846C107.35 78.4651 107.258 77.5146 106.89 77.1466C106.552 76.8093 105.663 76.6867 103.21 76.6867C101.432 76.6867 99.7149 76.5334 99.3776 76.3801C98.979 76.1961 98.5804 75.4296 98.2738 74.2951C97.9978 73.3445 97.2926 71.5048 96.7407 70.2477C96.1581 68.9905 95.6981 67.6721 95.6981 67.3348C95.7288 66.9975 96.8633 65.5564 98.3044 64.1153C99.7455 62.6742 100.911 61.2944 100.911 61.0491C100.911 60.8038 99.5616 59.24 97.9058 57.5843C95.8208 55.4992 94.717 54.61 94.2264 54.61C93.7051 54.61 92.8159 55.3153 91.3135 56.9097C89.5044 58.7801 88.9218 59.2093 88.186 59.2093C87.6647 59.2093 86.5609 58.8107 85.733 58.3201C84.8745 57.8602 83.188 57.063 81.9922 56.5724C80.4898 55.9898 79.6619 55.4379 79.4473 54.978C79.294 54.61 79.1407 52.8316 79.1407 50.9919C79.1407 48.7536 79.018 47.5884 78.7727 47.3125C78.4968 47.0672 77.3316 46.9445 75.0013 46.9445C72.671 46.9445 71.4752 47.0672 71.2299 47.3125C70.9846 47.5782 70.8619 48.8354 70.8619 51.0839C70.8926 53.9968 70.8006 54.5794 70.2487 55.2846C69.9114 55.7752 69.1142 56.2965 68.5009 56.4804C67.857 56.6644 66.2319 57.4003 64.8828 58.0749C63.5337 58.7494 62.0926 59.3013 61.6633 59.2707C61.142 59.2707 60.1609 58.5041 58.5971 56.9404C57.34 55.6832 56.0215 54.6407 55.7149 54.61C55.3776 54.61 53.8752 55.8365 52.0968 57.5843C50.441 59.24 49.0919 60.8038 49.0919 61.0491C49.0919 61.2944 50.1957 62.6742 51.5755 64.1153C52.9246 65.5564 54.1204 66.9975 54.1818 67.3348C54.2738 67.6721 54.0285 68.6226 53.5992 69.4811C53.1699 70.309 52.526 72.0567 52.1581 73.3139C51.7595 74.663 51.2076 75.8282 50.8089 76.1654C50.2877 76.6254 49.5825 76.7174 46.9455 76.7174C44.3086 76.7174 43.634 76.8093 43.1741 77.2386C42.7142 77.6985 42.6222 78.3118 42.6529 81.5926C42.6529 84.4748 42.7755 85.5787 43.1128 86.0999C43.542 86.7745 43.7873 86.8052 47.1908 86.8052C50.257 86.7745 50.8396 86.8665 51.2995 87.3264C51.5755 87.633 52.0968 88.6449 52.4647 89.5647C52.8326 90.4846 53.5379 91.987 54.9177 94.4707H50.0117L48.3253 91.0978H46.0257C44.7685 91.0978 43.2048 90.9445 42.5915 90.7912C41.9476 90.6073 40.9358 90.0247 40.2919 89.4728C39.6786 88.9515 39.0041 88.0316 38.7588 87.5104C38.4828 86.8052 38.3602 85.0881 38.3908 81.8073C38.3908 79.0783 38.5441 76.748 38.7588 76.1654C38.9734 75.6135 39.556 74.7243 40.0466 74.1724C40.5678 73.6512 41.4264 73.0379 41.9476 72.7926C42.4995 72.578 44.0326 72.394 47.7121 72.394L49.2758 68.2546L47.1908 65.955C45.5351 64.1459 45.0445 63.3794 44.8299 62.2755C44.6765 61.509 44.5846 60.7424 44.6459 60.5891C44.7072 60.4358 44.8299 59.8532 44.9525 59.3627C45.0752 58.7494 46.3323 57.247 48.5706 54.9473C50.533 52.985 52.526 51.2372 53.2312 50.8999C53.9058 50.5933 54.795 50.3174 55.2243 50.3174C55.6535 50.3174 56.5427 50.4707 57.2173 50.6546C58.0145 50.8999 59.0877 51.6358 62.1232 54.61L66.1093 52.801L66.2933 49.7961C66.3853 47.987 66.6612 46.4233 66.9372 45.8714C67.2131 45.3501 67.765 44.6449 68.1637 44.3076Z" fill="white"/>
<path d="M72.1497 78.9863C72.211 79.0783 72.6403 78.6797 73.1002 78.0665C73.6828 77.3306 74.2041 76.9933 74.7866 76.9933C75.4612 76.9933 75.7372 77.2386 76.3197 78.4344C76.6877 79.2623 77.0863 79.8449 77.1476 79.7529C77.2396 79.6609 77.1783 79.017 76.9943 78.2811C76.6877 77.024 76.7184 76.9933 77.3623 77.1773C77.7609 77.2999 78.6194 77.7599 79.294 78.2198C79.9685 78.6797 81.563 80.1515 82.8508 81.47C84.1386 82.8191 85.825 84.7815 86.6529 85.8853C87.4501 86.9891 88.7072 89.1355 89.4738 90.6379C90.2096 92.1404 91.0375 94.164 91.3135 95.0839C91.6201 96.2082 91.7427 97.5982 91.6814 99.2539C91.5894 101.37 91.4361 101.952 90.6389 103.24C89.9337 104.375 89.2591 104.957 88.0326 105.601C87.1128 106.061 85.1811 106.643 83.74 106.889C82.0535 107.165 79.018 107.349 75.1546 107.349C71.3832 107.349 68.2556 107.195 66.7225 106.919C65.3734 106.674 63.6563 106.306 62.9204 106.092C62.1846 105.846 61.0807 105.233 60.4675 104.712C59.7929 104.16 59.149 103.209 58.8117 102.259C58.4745 101.308 58.2905 99.8672 58.2905 98.3647C58.2905 96.709 58.5051 95.2985 59.057 93.6121C59.4556 92.3243 60.4981 90.086 61.3567 88.6449C62.2152 87.2038 63.7177 85.0881 64.6682 83.9229C65.6187 82.7578 67.3664 80.9794 68.5623 79.9982C69.7274 78.9863 71.0765 77.9745 71.5365 77.7292C72.0271 77.4839 72.4563 77.3613 72.5483 77.4532C72.6403 77.5452 72.5483 77.8825 72.395 78.2198C72.211 78.5571 72.119 78.8944 72.1497 78.9863Z" fill="white"/>
<path d="M71.9347 64.1457C72.6093 63.9618 73.4985 63.7471 73.9277 63.6858C74.357 63.6245 75.5222 63.6245 76.534 63.7165C77.5459 63.7778 79.0176 64.0537 79.8148 64.299C80.6427 64.5443 81.2866 64.9123 81.2866 65.1269C81.2866 65.3109 81.0107 66.1388 80.6734 66.9666C80.3361 67.7639 80.1215 68.4691 80.2134 68.5611C80.3054 68.6531 80.5814 68.3771 80.8267 67.9478C81.072 67.5186 81.4093 67.1813 81.5932 67.1813C81.7772 67.1813 82.2371 67.5492 82.6664 68.0398C83.0957 68.4997 83.4636 69.205 83.433 69.6342C83.433 70.1453 82.6153 71.3513 80.98 73.2524C79.6309 74.7855 78.3124 76.0733 78.0671 76.0733C77.8218 76.0733 77.3925 76.0119 77.1472 75.92C76.9019 75.828 76.7486 75.552 76.8406 75.3067C76.9326 75.0614 76.8406 74.8468 76.6873 74.8468C76.534 74.8468 76.35 75.0308 76.2887 75.2454C76.2274 75.4907 75.5835 75.6133 74.5103 75.6133C73.5905 75.6133 72.5173 75.736 72.088 75.828C71.4134 76.0426 71.0762 75.736 68.9605 73.1604C67.642 71.5659 66.5688 70.0022 66.5688 69.7262C66.5688 69.4196 66.8448 68.8677 67.1821 68.4997C67.5194 68.1011 68.1633 67.5799 68.6232 67.3652C69.4511 66.9053 69.4817 66.936 70.1563 68.1318C70.5549 68.7757 70.9229 69.297 71.0148 69.2663C71.1375 69.205 70.9229 68.2544 70.5549 67.12C70.0337 65.4642 70.003 65.0043 70.3096 64.759C70.5242 64.6057 71.2601 64.3297 71.9347 64.1457Z" fill="white"/>
<path d="M73.6216 85.4867C73.8669 85.4254 74.2042 84.9041 74.3269 84.3829C74.5108 83.6777 74.7255 83.4017 75.0934 83.4937C75.4 83.555 75.676 83.9843 75.768 84.4749C75.8906 85.1494 76.1666 85.4254 77.1478 85.732C77.8223 85.9773 78.7728 86.6212 79.2328 87.1731C79.8154 87.8784 80.0607 88.4609 79.9993 89.0742C79.938 89.5648 79.662 90.1167 79.3861 90.3007C78.9875 90.546 78.6809 90.546 78.3129 90.3007C78.0063 90.1167 77.6384 89.6874 77.4544 89.3501C77.3011 89.0129 76.9331 88.5223 76.6878 88.2156C76.4425 87.9397 76.1359 87.6944 76.0133 87.7251C75.86 87.7251 75.768 88.6449 75.768 91.8644L77.2091 92.3857C78.037 92.6616 79.0488 93.3055 79.5394 93.8268C79.9993 94.348 80.4593 95.2986 80.5512 95.9425C80.6739 96.6477 80.5512 97.5676 80.2446 98.3954C79.938 99.162 79.3554 99.9592 78.7728 100.358C78.2209 100.726 77.3011 101.124 76.7798 101.278C75.8906 101.492 75.768 101.646 75.7066 102.688C75.6147 103.608 75.492 103.823 75.0014 103.823C74.5108 103.823 74.3882 103.608 74.3269 102.688C74.2349 101.615 74.1429 101.492 72.9471 101.155C72.2112 100.94 71.1993 100.296 70.6474 99.7752C70.0035 99.1313 69.5742 98.3648 69.4823 97.6902C69.3903 97.077 69.4823 96.4024 69.7276 96.1264C69.9422 95.8505 70.4328 95.6972 70.862 95.7585C71.3833 95.8198 71.8126 96.1878 72.1805 96.9237C72.4871 97.5062 72.9471 98.2421 73.2537 98.5487C73.5296 98.8554 73.8669 99.1007 74.0202 99.07C74.1429 99.07 74.2349 97.9662 74.2349 96.617C74.2349 94.8693 74.1122 94.1641 73.8669 94.1641C73.6523 94.1641 72.9164 93.8881 72.2418 93.5508C71.5673 93.2442 70.7701 92.539 70.4941 92.0177C70.1875 91.5271 69.9422 90.5153 69.9422 89.8101C69.9422 89.0742 70.1875 88.0317 70.4941 87.4798C70.8007 86.8972 71.4753 86.3146 72.0885 86.0693C72.6711 85.824 73.3763 85.5787 73.6216 85.4867Z" fill="#1A2226"/>
<path d="M72.364 89.4115C72.3333 89.2275 72.548 88.7676 72.8546 88.3997C73.1305 88.0317 73.5598 87.7251 73.7745 87.7251C74.1424 87.7251 74.2344 88.1544 74.2344 89.5648C74.2344 90.5767 74.1117 91.4045 73.9278 91.4045C73.7745 91.4045 73.3452 91.0366 73.0079 90.5767C72.64 90.0861 72.364 89.5648 72.364 89.4115Z" fill="white"/>
<path d="M75.7675 99.3767V97.077C75.7675 95.8199 75.8595 94.7774 75.9821 94.7774C76.1354 94.7467 76.5954 95.0227 77.0553 95.3906C77.6072 95.7585 77.9138 96.2798 77.9138 96.7704C77.9138 97.1997 77.8218 97.7516 77.6992 98.0275C77.5459 98.3035 77.0859 98.7328 75.7675 99.3767Z" fill="white"/>
</svg>
